<?xml version="1.0" encoding="UTF-8" standalone="no"?>
<!DOCTYPE svg PUBLIC "-//W3C//DTD SVG 1.1//EN"
 "http://www.w3.org/Graphics/SVG/1.1/DTD/svg11.dtd">
<!-- Generated by graphviz version 2.43.0 (0)
 -->
<!-- Title: graphname Pages: 1 -->
<svg width="2404pt" height="318pt"
 viewBox="0.00 0.00 2404.00 318.00" xmlns="http://www.w3.org/2000/svg" xmlns:xlink="http://www.w3.org/1999/xlink">
<g id="graph0" class="graph" transform="scale(1 1) rotate(0) translate(4 314)">
<title>graphname</title>
<polygon fill="white" stroke="transparent" points="-4,4 -4,-314 2400,-314 2400,4 -4,4"/>
<g id="clust1" class="cluster">
<title>cluster_0</title>
<polygon fill="none" stroke="black" points="8,-80 8,-302 530,-302 530,-80 8,-80"/>
<text text-anchor="middle" x="269" y="-286.8" font-family="Times,serif" font-size="14.00">intrometry</text>
</g>
<g id="clust2" class="cluster">
<title>cluster_1</title>
<polygon fill="none" stroke="black" points="538,-8 538,-155 2388,-155 2388,-8 538,-8"/>
<text text-anchor="middle" x="1463" y="-139.8" font-family="Times,serif" font-size="14.00">ariles</text>
</g>
<!-- intrometry_pjmsg_topic -->
<g id="node1" class="node">
<title>intrometry_pjmsg_topic</title>
<g id="a_node1"><a xlink:href="../intrometry_pjmsg_topic/index.html" xlink:title="intrometry_pjmsg_topic">
<ellipse fill="none" stroke="black" cx="137" cy="-181" rx="120.78" ry="18"/>
<text text-anchor="middle" x="137" y="-177.3" font-family="Times,serif" font-size="14.00">intrometry_pjmsg_topic</text>
</a>
</g>
</g>
<!-- intrometry_frontend -->
<g id="node4" class="node">
<title>intrometry_frontend</title>
<g id="a_node4"><a xlink:href="../intrometry_frontend/index.html" xlink:title="intrometry_frontend">
<ellipse fill="none" stroke="black" cx="399" cy="-106" rx="105.08" ry="18"/>
<text text-anchor="middle" x="399" y="-102.3" font-family="Times,serif" font-size="14.00">intrometry_frontend</text>
</a>
</g>
</g>
<!-- intrometry_pjmsg_topic&#45;&gt;intrometry_frontend -->
<g id="edge3" class="edge">
<title>intrometry_pjmsg_topic&#45;&gt;intrometry_frontend</title>
<path fill="none" stroke="#0000ff" d="M191.02,-163.91C233.24,-152.15 291.88,-135.81 336.09,-123.49"/>
<path fill="none" stroke="#ff0000" d="M191.55,-165.84C233.78,-154.07 292.41,-137.74 336.62,-125.42"/>
<polygon fill="#0000ff" stroke="#0000ff" points="337.43,-127.79 346.13,-121.73 335.55,-121.04 337.43,-127.79"/>
</g>
<!-- ariles2_namevalue2_ws -->
<g id="node8" class="node">
<title>ariles2_namevalue2_ws</title>
<g id="a_node8"><a xlink:href="../ariles2_namevalue2_ws/index.html" xlink:title="ariles2_namevalue2_ws">
<ellipse fill="none" stroke="black" cx="1376" cy="-106" rx="120.48" ry="18"/>
<text text-anchor="middle" x="1376" y="-102.3" font-family="Times,serif" font-size="14.00">ariles2_namevalue2_ws</text>
</a>
</g>
</g>
<!-- intrometry_pjmsg_topic&#45;&gt;ariles2_namevalue2_ws -->
<g id="edge4" class="edge">
<title>intrometry_pjmsg_topic&#45;&gt;ariles2_namevalue2_ws</title>
<path fill="none" stroke="#0000ff" d="M218.9,-166.74C234.8,-164.8 251.34,-163.08 266.93,-162 321.32,-158.24 1193.46,-163.86 1246.82,-154.02 1276.22,-148.62 1307.88,-136.93 1332.39,-126.47"/>
<path fill="none" stroke="#ff0000" d="M219.15,-168.73C235.01,-166.79 251.55,-165.07 267.07,-164 321.31,-160.24 1193.45,-165.86 1247.18,-155.98 1276.91,-150.49 1308.57,-138.81 1333.17,-128.31"/>
<polygon fill="#0000ff" stroke="#0000ff" points="1334.39,-130.51 1342.16,-123.3 1331.6,-124.09 1334.39,-130.51"/>
</g>
<!-- intrometry_pjmsg_mcap -->
<g id="node2" class="node">
<title>intrometry_pjmsg_mcap</title>
<g id="a_node2"><a xlink:href="../intrometry_pjmsg_mcap/index.html" xlink:title="intrometry_pjmsg_mcap">
<ellipse fill="none" stroke="black" cx="399" cy="-181" rx="122.68" ry="18"/>
<text text-anchor="middle" x="399" y="-177.3" font-family="Times,serif" font-size="14.00">intrometry_pjmsg_mcap</text>
</a>
</g>
</g>
<!-- intrometry_pjmsg_mcap&#45;&gt;intrometry_frontend -->
<g id="edge5" class="edge">
<title>intrometry_pjmsg_mcap&#45;&gt;intrometry_frontend</title>
<path fill="none" stroke="#0000ff" d="M398,-162.7C398,-154.25 398,-143.87 398,-134.37"/>
<path fill="none" stroke="#ff0000" d="M400,-162.7C400,-154.25 400,-143.87 400,-134.37"/>
<polygon fill="#0000ff" stroke="#0000ff" points="402.5,-134.18 399,-124.18 395.5,-134.18 402.5,-134.18"/>
</g>
<!-- intrometry_pjmsg_mcap&#45;&gt;ariles2_namevalue2_ws -->
<g id="edge6" class="edge">
<title>intrometry_pjmsg_mcap&#45;&gt;ariles2_namevalue2_ws</title>
<path fill="none" stroke="#0000ff" d="M521.03,-177.6C738.74,-174.78 1177.87,-167.5 1246.81,-154.02 1275.95,-148.34 1307.37,-136.77 1331.83,-126.45"/>
<path fill="none" stroke="#ff0000" d="M521.05,-179.6C738.77,-176.78 1177.9,-169.5 1247.19,-155.98 1276.64,-150.22 1308.06,-138.65 1332.6,-128.29"/>
<polygon fill="#0000ff" stroke="#0000ff" points="1333.79,-130.5 1341.58,-123.33 1331.01,-124.07 1333.79,-130.5"/>
</g>
<!-- intrometry_tests -->
<g id="node3" class="node">
<title>intrometry_tests</title>
<g id="a_node3"><a xlink:href="../intrometry_tests/index.html" xlink:title="intrometry_tests">
<ellipse fill="none" stroke="black" cx="268" cy="-253" rx="88.28" ry="18"/>
<text text-anchor="middle" x="268" y="-249.3" font-family="Times,serif" font-size="14.00">intrometry_tests</text>
</a>
</g>
</g>
<!-- intrometry_tests&#45;&gt;intrometry_pjmsg_topic -->
<g id="edge2" class="edge">
<title>intrometry_tests&#45;&gt;intrometry_pjmsg_topic</title>
<path fill="none" stroke="#0000ff" d="M237.47,-236.82C219.35,-227.14 196.03,-214.68 176.38,-204.18"/>
<path fill="none" stroke="#ff0000" d="M238.42,-235.06C220.29,-225.37 196.98,-212.91 177.32,-202.41"/>
<polygon fill="#0000ff" stroke="#0000ff" points="178.29,-200.1 167.82,-198.47 174.99,-206.27 178.29,-200.1"/>
</g>
<!-- intrometry_tests&#45;&gt;intrometry_pjmsg_mcap -->
<g id="edge1" class="edge">
<title>intrometry_tests&#45;&gt;intrometry_pjmsg_mcap</title>
<path fill="none" stroke="#0000ff" d="M297.58,-235.06C315.71,-225.37 339.02,-212.91 358.68,-202.41"/>
<path fill="none" stroke="#ff0000" d="M298.53,-236.82C316.65,-227.14 339.97,-214.68 359.62,-204.18"/>
<polygon fill="#0000ff" stroke="#0000ff" points="361.01,-206.27 368.18,-198.47 357.71,-200.1 361.01,-206.27"/>
</g>
<!-- ariles2_core_ws -->
<g id="node6" class="node">
<title>ariles2_core_ws</title>
<g id="a_node6"><a xlink:href="../ariles2_core_ws/index.html" xlink:title="ariles2_core_ws">
<ellipse fill="none" stroke="black" cx="1376" cy="-34" rx="83.69" ry="18"/>
<text text-anchor="middle" x="1376" y="-30.3" font-family="Times,serif" font-size="14.00">ariles2_core_ws</text>
</a>
</g>
</g>
<!-- intrometry_frontend&#45;&gt;ariles2_core_ws -->
<g id="edge7" class="edge">
<title>intrometry_frontend&#45;&gt;ariles2_core_ws</title>
<path fill="none" stroke="#0000ff" d="M462.08,-90.55C484.64,-86.21 510.28,-81.81 533.88,-79.01 804.41,-46.87 1126.46,-37.67 1282.3,-35.05"/>
<path fill="none" stroke="#ff0000" d="M462.46,-92.51C484.98,-88.18 510.62,-83.78 534.12,-80.99 804.47,-48.87 1126.52,-39.67 1282.33,-37.05"/>
<polygon fill="#0000ff" stroke="#0000ff" points="1282.39,-39.55 1292.33,-35.88 1282.28,-32.55 1282.39,-39.55"/>
</g>
<!-- ariles2_rapidjson_ws -->
<g id="node5" class="node">
<title>ariles2_rapidjson_ws</title>
<g id="a_node5"><a xlink:href="../ariles2_rapidjson_ws/index.html" xlink:title="ariles2_rapidjson_ws">
<ellipse fill="none" stroke="black" cx="1843" cy="-106" rx="107.48" ry="18"/>
<text text-anchor="middle" x="1843" y="-102.3" font-family="Times,serif" font-size="14.00">ariles2_rapidjson_ws</text>
</a>
</g>
</g>
<!-- ariles2_rapidjson_ws&#45;&gt;ariles2_core_ws -->
<g id="edge11" class="edge">
<title>ariles2_rapidjson_ws&#45;&gt;ariles2_core_ws</title>
<path fill="none" stroke="#0000ff" d="M1782.25,-92.05C1764.16,-88.15 1744.23,-84.13 1725.83,-80.99 1635.37,-65.53 1530.87,-52.75 1459.8,-44.81"/>
<path fill="none" stroke="#ff0000" d="M1782.67,-90.09C1764.56,-86.19 1744.62,-82.17 1726.17,-79.01 1635.61,-63.55 1531.11,-50.76 1460.02,-42.82"/>
<polygon fill="#0000ff" stroke="#0000ff" points="1459.99,-40.3 1449.67,-42.68 1459.22,-47.26 1459.99,-40.3"/>
</g>
<!-- ariles2_pugixml_ws -->
<g id="node7" class="node">
<title>ariles2_pugixml_ws</title>
<g id="a_node7"><a xlink:href="../ariles2_pugixml_ws/index.html" xlink:title="ariles2_pugixml_ws">
<ellipse fill="none" stroke="black" cx="1616" cy="-106" rx="101.28" ry="18"/>
<text text-anchor="middle" x="1616" y="-102.3" font-family="Times,serif" font-size="14.00">ariles2_pugixml_ws</text>
</a>
</g>
</g>
<!-- ariles2_pugixml_ws&#45;&gt;ariles2_core_ws -->
<g id="edge12" class="edge">
<title>ariles2_pugixml_ws&#45;&gt;ariles2_core_ws</title>
<path fill="none" stroke="#0000ff" d="M1565.41,-91.29C1526.81,-80.03 1473.48,-64.47 1433.2,-52.72"/>
<path fill="none" stroke="#ff0000" d="M1565.97,-89.37C1527.37,-78.11 1474.04,-62.55 1433.76,-50.8"/>
<polygon fill="#0000ff" stroke="#0000ff" points="1434.37,-48.38 1423.79,-48.94 1432.41,-55.1 1434.37,-48.38"/>
</g>
<!-- ariles2_namevalue2_ws&#45;&gt;ariles2_core_ws -->
<g id="edge14" class="edge">
<title>ariles2_namevalue2_ws&#45;&gt;ariles2_core_ws</title>
<path fill="none" stroke="#0000ff" d="M1375,-87.7C1375,-79.98 1375,-70.71 1375,-62.11"/>
<path fill="none" stroke="#ff0000" d="M1377,-87.7C1377,-79.98 1377,-70.71 1377,-62.11"/>
<polygon fill="#0000ff" stroke="#0000ff" points="1379.5,-62.1 1376,-52.1 1372.5,-62.1 1379.5,-62.1"/>
</g>
<!-- ariles2_graphviz_ws -->
<g id="node9" class="node">
<title>ariles2_graphviz_ws</title>
<g id="a_node9"><a xlink:href="../ariles2_graphviz_ws/index.html" xlink:title="ariles2_graphviz_ws">
<ellipse fill="none" stroke="black" cx="1133" cy="-106" rx="104.78" ry="18"/>
<text text-anchor="middle" x="1133" y="-102.3" font-family="Times,serif" font-size="14.00">ariles2_graphviz_ws</text>
</a>
</g>
</g>
<!-- ariles2_graphviz_ws&#45;&gt;ariles2_core_ws -->
<g id="edge15" class="edge">
<title>ariles2_graphviz_ws&#45;&gt;ariles2_core_ws</title>
<path fill="none" stroke="#0000ff" d="M1183.96,-89.28C1223.2,-77.98 1277.32,-62.38 1318.07,-50.65"/>
<path fill="none" stroke="#ff0000" d="M1184.51,-91.2C1223.75,-79.9 1277.88,-64.31 1318.62,-52.57"/>
<polygon fill="#0000ff" stroke="#0000ff" points="1319.5,-54.92 1328.14,-48.79 1317.56,-48.19 1319.5,-54.92"/>
</g>
<!-- ariles2_ros2param_ws -->
<g id="node10" class="node">
<title>ariles2_ros2param_ws</title>
<g id="a_node10"><a xlink:href="../ariles2_ros2param_ws/index.html" xlink:title="ariles2_ros2param_ws">
<ellipse fill="none" stroke="black" cx="896" cy="-106" rx="114.28" ry="18"/>
<text text-anchor="middle" x="896" y="-102.3" font-family="Times,serif" font-size="14.00">ariles2_ros2param_ws</text>
</a>
</g>
</g>
<!-- ariles2_ros2param_ws&#45;&gt;ariles2_core_ws -->
<g id="edge10" class="edge">
<title>ariles2_ros2param_ws&#45;&gt;ariles2_core_ws</title>
<path fill="none" stroke="#0000ff" d="M959.79,-90.07C978.74,-86.19 999.57,-82.18 1018.84,-79.01 1112.05,-63.69 1219.64,-50.77 1292.16,-42.76"/>
<path fill="none" stroke="#ff0000" d="M960.19,-92.03C979.12,-88.15 999.94,-84.15 1019.16,-80.99 1112.29,-65.68 1219.88,-52.76 1292.38,-44.75"/>
<polygon fill="#0000ff" stroke="#0000ff" points="1292.71,-47.23 1302.27,-42.66 1291.94,-40.27 1292.71,-47.23"/>
</g>
<!-- ariles2_rosparam_ws -->
<g id="node11" class="node">
<title>ariles2_rosparam_ws</title>
<g id="a_node11"><a xlink:href="../ariles2_rosparam_ws/index.html" xlink:title="ariles2_rosparam_ws">
<ellipse fill="none" stroke="black" cx="655" cy="-106" rx="108.58" ry="18"/>
<text text-anchor="middle" x="655" y="-102.3" font-family="Times,serif" font-size="14.00">ariles2_rosparam_ws</text>
</a>
</g>
</g>
<!-- ariles2_rosparam_ws&#45;&gt;ariles2_core_ws -->
<g id="edge9" class="edge">
<title>ariles2_rosparam_ws&#45;&gt;ariles2_core_ws</title>
<path fill="none" stroke="#0000ff" d="M713.94,-89.87C732.68,-85.82 753.53,-81.77 772.86,-79.01 952.7,-53.37 1164.81,-41.83 1283.52,-37.04"/>
<path fill="none" stroke="#ff0000" d="M714.36,-91.82C733.07,-87.78 753.91,-83.73 773.14,-80.99 952.81,-55.37 1164.92,-43.83 1283.6,-39.04"/>
<polygon fill="#0000ff" stroke="#0000ff" points="1283.84,-41.53 1293.7,-37.64 1283.56,-34.54 1283.84,-41.53"/>
</g>
<!-- ariles2_yamlcpp_ws -->
<g id="node12" class="node">
<title>ariles2_yamlcpp_ws</title>
<g id="a_node12"><a xlink:href="../ariles2_yamlcpp_ws/index.html" xlink:title="ariles2_yamlcpp_ws">
<ellipse fill="none" stroke="black" cx="2277" cy="-106" rx="102.88" ry="18"/>
<text text-anchor="middle" x="2277" y="-102.3" font-family="Times,serif" font-size="14.00">ariles2_yamlcpp_ws</text>
</a>
</g>
</g>
<!-- ariles2_yamlcpp_ws&#45;&gt;ariles2_core_ws -->
<g id="edge8" class="edge">
<title>ariles2_yamlcpp_ws&#45;&gt;ariles2_core_ws</title>
<path fill="none" stroke="#0000ff" d="M2221.56,-91.78C2203.59,-87.66 2183.45,-83.58 2164.86,-80.99 1915.65,-46.3 1618.44,-38.22 1470.06,-36.43"/>
<path fill="none" stroke="#ff0000" d="M2222.01,-89.83C2203.99,-85.7 2183.85,-81.62 2165.14,-79.01 1915.7,-44.3 1618.49,-36.22 1470.08,-34.43"/>
<polygon fill="#0000ff" stroke="#0000ff" points="1469.68,-31.93 1459.64,-35.31 1469.6,-38.93 1469.68,-31.93"/>
</g>
<!-- ariles2_octave_ws -->
<g id="node13" class="node">
<title>ariles2_octave_ws</title>
<g id="a_node13"><a xlink:href="../ariles2_octave_ws/index.html" xlink:title="ariles2_octave_ws">
<ellipse fill="none" stroke="black" cx="2062" cy="-106" rx="94.48" ry="18"/>
<text text-anchor="middle" x="2062" y="-102.3" font-family="Times,serif" font-size="14.00">ariles2_octave_ws</text>
</a>
</g>
</g>
<!-- ariles2_octave_ws&#45;&gt;ariles2_core_ws -->
<g id="edge13" class="edge">
<title>ariles2_octave_ws&#45;&gt;ariles2_core_ws</title>
<path fill="none" stroke="#0000ff" d="M2010.48,-91.8C1994.1,-87.74 1975.78,-83.68 1958.84,-80.99 1787.17,-53.71 1584.19,-42.79 1468.73,-38.55"/>
<path fill="none" stroke="#ff0000" d="M2010.96,-89.86C1994.53,-85.79 1976.21,-81.72 1959.16,-79.01 1787.28,-51.71 1584.3,-40.79 1468.81,-36.56"/>
<polygon fill="#0000ff" stroke="#0000ff" points="1468.67,-34.05 1458.56,-37.19 1468.42,-41.04 1468.67,-34.05"/>
</g>
</g>
</svg>
