<?xml version="1.0" encoding="UTF-8" standalone="no"?>
<!DOCTYPE svg PUBLIC "-//W3C//DTD SVG 1.1//EN"
 "http://www.w3.org/Graphics/SVG/1.1/DTD/svg11.dtd">
<!-- Generated by graphviz version 2.43.0 (0)
 -->
<!-- Title: Graphical Class Hierarchy Pages: 1 -->
<svg width="456pt" height="50pt"
 viewBox="0.00 0.00 456.00 50.00" xmlns="http://www.w3.org/2000/svg" xmlns:xlink="http://www.w3.org/1999/xlink">
<g id="graph0" class="graph" transform="scale(1 1) rotate(0) translate(4 46)">
<title>Graphical Class Hierarchy</title>
<polygon fill="white" stroke="transparent" points="-4,4 -4,-46 452,-46 452,4 -4,4"/>
<!-- Node0 -->
<g id="node1" class="node">
<title>Node0</title>
<g id="a_node1"><a target="_parent" xlink:href="../intrometry_frontend/classintrometry_1_1Sink.html" xlink:title=" ">
<polygon fill="white" stroke="black" points="0,-11.5 0,-30.5 95,-30.5 95,-11.5 0,-11.5"/>
<text text-anchor="middle" x="47.5" y="-18.5" font-family="Helvetica,sans-Serif" font-size="10.00">intrometry::Sink</text>
</a>
</g>
</g>
<!-- Node1 -->
<g id="node2" class="node">
<title>Node1</title>
<g id="a_node2"><a target="_parent" xlink:href="../intrometry_frontend/classintrometry_1_1SinkPIMPLBase.html" xlink:title=" ">
<polygon fill="white" stroke="black" points="131,-0.5 131,-41.5 279,-41.5 279,-0.5 131,-0.5"/>
<text text-anchor="start" x="139" y="-29.5" font-family="Helvetica,sans-Serif" font-size="10.00">intrometry::SinkPIMPLBase</text>
<text text-anchor="start" x="139" y="-18.5" font-family="Helvetica,sans-Serif" font-size="10.00">&lt; sink::Parameters, sink</text>
<text text-anchor="middle" x="205" y="-7.5" font-family="Helvetica,sans-Serif" font-size="10.00">::Implementation &gt;</text>
</a>
</g>
</g>
<!-- Node0&#45;&gt;Node1 -->
<g id="edge1" class="edge">
<title>Node0&#45;&gt;Node1</title>
<path fill="none" stroke="midnightblue" d="M105.16,-21C113.53,-21 122.26,-21 130.91,-21"/>
<polygon fill="midnightblue" stroke="midnightblue" points="105.16,-17.5 95.16,-21 105.16,-24.5 105.16,-17.5"/>
</g>
<!-- Node2 -->
<g id="node3" class="node">
<title>Node2</title>
<g id="a_node3"><a xlink:href="classintrometry_1_1pjmsg__topic_1_1Sink.html" target="_top" xlink:title="Publish data.">
<polygon fill="white" stroke="black" points="315,-6 315,-36 448,-36 448,-6 315,-6"/>
<text text-anchor="start" x="323" y="-24" font-family="Helvetica,sans-Serif" font-size="10.00">intrometry::pjmsg_topic</text>
<text text-anchor="middle" x="381.5" y="-13" font-family="Helvetica,sans-Serif" font-size="10.00">::Sink</text>
</a>
</g>
</g>
<!-- Node1&#45;&gt;Node2 -->
<g id="edge2" class="edge">
<title>Node1&#45;&gt;Node2</title>
<path fill="none" stroke="midnightblue" d="M289.3,-21C297.91,-21 306.57,-21 314.94,-21"/>
<polygon fill="midnightblue" stroke="midnightblue" points="289.25,-17.5 279.25,-21 289.25,-24.5 289.25,-17.5"/>
</g>
</g>
</svg>
