<?xml version="1.0" encoding="UTF-8" standalone="no"?>
<!DOCTYPE svg PUBLIC "-//W3C//DTD SVG 1.1//EN"
 "http://www.w3.org/Graphics/SVG/1.1/DTD/svg11.dtd">
<!-- Generated by graphviz version 2.43.0 (0)
 -->
<!-- Title: graphname Pages: 1 -->
<svg width="738pt" height="246pt"
 viewBox="0.00 0.00 737.89 246.00" xmlns="http://www.w3.org/2000/svg" xmlns:xlink="http://www.w3.org/1999/xlink">
<g id="graph0" class="graph" transform="scale(1 1) rotate(0) translate(4 242)">
<title>graphname</title>
<polygon fill="white" stroke="transparent" points="-4,4 -4,-242 733.89,-242 733.89,4 -4,4"/>
<g id="clust1" class="cluster">
<title>cluster_0</title>
<polygon fill="none" stroke="black" points="8,-80 8,-230 266,-230 266,-80 8,-80"/>
<text text-anchor="middle" x="137" y="-214.8" font-family="Times,serif" font-size="14.00">intrometry</text>
</g>
<g id="clust2" class="cluster">
<title>cluster_1</title>
<polygon fill="none" stroke="black" points="274,-8 274,-155 530,-155 530,-8 274,-8"/>
<text text-anchor="middle" x="402" y="-139.8" font-family="Times,serif" font-size="14.00">ariles</text>
</g>
<!-- intrometry_pjmsg_topic -->
<g id="node1" class="node">
<title>intrometry_pjmsg_topic</title>
<g id="a_node1"><a xlink:href="../intrometry_pjmsg_topic/index.html" xlink:title="intrometry_pjmsg_topic">
<ellipse fill="none" stroke="black" cx="137" cy="-181" rx="120.78" ry="18"/>
<text text-anchor="middle" x="137" y="-177.3" font-family="Times,serif" font-size="14.00">intrometry_pjmsg_topic</text>
</a>
</g>
</g>
<!-- intrometry_frontend -->
<g id="node2" class="node">
<title>intrometry_frontend</title>
<g id="a_node2"><a xlink:href="../intrometry_frontend/index.html" xlink:title="intrometry_frontend">
<ellipse fill="none" stroke="black" cx="145" cy="-106" rx="105.08" ry="18"/>
<text text-anchor="middle" x="145" y="-102.3" font-family="Times,serif" font-size="14.00">intrometry_frontend</text>
</a>
</g>
</g>
<!-- intrometry_pjmsg_topic&#45;&gt;intrometry_frontend -->
<g id="edge3" class="edge">
<title>intrometry_pjmsg_topic&#45;&gt;intrometry_frontend</title>
<path fill="none" stroke="#0000ff" d="M137.9,-162.59C138.83,-154.14 139.97,-143.76 141.01,-134.26"/>
<path fill="none" stroke="#ff0000" d="M139.89,-162.81C140.82,-154.35 141.95,-143.98 142.99,-134.48"/>
<polygon fill="#0000ff" stroke="#0000ff" points="145.51,-134.5 143.12,-124.18 138.55,-133.73 145.51,-134.5"/>
</g>
<!-- ariles2_namevalue2_ws -->
<g id="node4" class="node">
<title>ariles2_namevalue2_ws</title>
<g id="a_node4"><a xlink:href="../ariles2_namevalue2_ws/index.html" xlink:title="ariles2_namevalue2_ws">
<ellipse fill="none" stroke="black" cx="402" cy="-106" rx="120.48" ry="18"/>
<text text-anchor="middle" x="402" y="-102.3" font-family="Times,serif" font-size="14.00">ariles2_namevalue2_ws</text>
</a>
</g>
</g>
<!-- intrometry_pjmsg_topic&#45;&gt;ariles2_namevalue2_ws -->
<g id="edge2" class="edge">
<title>intrometry_pjmsg_topic&#45;&gt;ariles2_namevalue2_ws</title>
<path fill="none" stroke="#0000ff" d="M216.06,-166.31C233.84,-162.86 252.56,-158.74 269.74,-154.04 297.8,-146.35 328.46,-135.37 353.12,-125.86"/>
<path fill="none" stroke="#ff0000" d="M216.44,-168.28C234.27,-164.81 252.99,-160.69 270.26,-155.96 298.47,-148.24 329.13,-137.25 353.84,-127.73"/>
<polygon fill="#0000ff" stroke="#0000ff" points="354.93,-129.99 362.98,-123.09 352.39,-123.46 354.93,-129.99"/>
</g>
<!-- thread_supervisor -->
<g id="node5" class="node">
<title>thread_supervisor</title>
<g id="a_node5"><a xlink:href="../thread_supervisor/index.html" xlink:title="thread_supervisor">
<ellipse fill="none" stroke="black" cx="635" cy="-106" rx="94.78" ry="18"/>
<text text-anchor="middle" x="635" y="-102.3" font-family="Times,serif" font-size="14.00">thread_supervisor</text>
</a>
</g>
</g>
<!-- intrometry_pjmsg_topic&#45;&gt;thread_supervisor -->
<g id="edge1" class="edge">
<title>intrometry_pjmsg_topic&#45;&gt;thread_supervisor</title>
<path fill="none" stroke="#0000ff" d="M255.62,-176.47C353.14,-173.48 483.22,-167.13 533.75,-154.03 556.09,-148.27 579.64,-137.39 598.29,-127.48"/>
<path fill="none" stroke="#ff0000" d="M255.68,-178.47C353.24,-175.48 483.32,-169.13 534.25,-155.97 556.93,-150.08 580.48,-139.2 599.23,-129.25"/>
<polygon fill="#0000ff" stroke="#0000ff" points="600.68,-131.3 607.79,-123.44 597.33,-125.15 600.68,-131.3"/>
</g>
<!-- ariles2_core_ws -->
<g id="node3" class="node">
<title>ariles2_core_ws</title>
<g id="a_node3"><a xlink:href="../ariles2_core_ws/index.html" xlink:title="ariles2_core_ws">
<ellipse fill="none" stroke="black" cx="384" cy="-34" rx="83.69" ry="18"/>
<text text-anchor="middle" x="384" y="-30.3" font-family="Times,serif" font-size="14.00">ariles2_core_ws</text>
</a>
</g>
</g>
<!-- intrometry_frontend&#45;&gt;ariles2_core_ws -->
<g id="edge4" class="edge">
<title>intrometry_frontend&#45;&gt;ariles2_core_ws</title>
<path fill="none" stroke="#0000ff" d="M195.4,-89.2C233.89,-77.92 286.81,-62.42 326.76,-50.72"/>
<path fill="none" stroke="#ff0000" d="M195.97,-91.11C234.45,-79.84 287.37,-64.34 327.32,-52.64"/>
<polygon fill="#0000ff" stroke="#0000ff" points="328.03,-55.04 336.64,-48.87 326.06,-48.32 328.03,-55.04"/>
</g>
<!-- ariles2_namevalue2_ws&#45;&gt;ariles2_core_ws -->
<g id="edge5" class="edge">
<title>ariles2_namevalue2_ws&#45;&gt;ariles2_core_ws</title>
<path fill="none" stroke="#0000ff" d="M396.58,-87.95C394.58,-80.15 392.16,-70.76 389.93,-62.08"/>
<path fill="none" stroke="#ff0000" d="M398.52,-87.45C396.51,-79.65 394.1,-70.26 391.87,-61.58"/>
<polygon fill="#0000ff" stroke="#0000ff" points="394.28,-60.92 388.4,-52.1 387.5,-62.66 394.28,-60.92"/>
</g>
</g>
</svg>
