<?xml version="1.0" encoding="UTF-8" standalone="no"?>
<!DOCTYPE svg PUBLIC "-//W3C//DTD SVG 1.1//EN"
 "http://www.w3.org/Graphics/SVG/1.1/DTD/svg11.dtd">
<!-- Generated by graphviz version 2.43.0 (0)
 -->
<!-- Title: graphname Pages: 1 -->
<svg width="2360pt" height="246pt"
 viewBox="0.00 0.00 2359.89 246.00" xmlns="http://www.w3.org/2000/svg" xmlns:xlink="http://www.w3.org/1999/xlink">
<g id="graph0" class="graph" transform="scale(1 1) rotate(0) translate(4 242)">
<title>graphname</title>
<polygon fill="white" stroke="transparent" points="-4,4 -4,-242 2355.89,-242 2355.89,4 -4,4"/>
<g id="clust1" class="cluster">
<title>cluster_0</title>
<polygon fill="none" stroke="black" points="8,-80 8,-230 530,-230 530,-80 8,-80"/>
<text text-anchor="middle" x="269" y="-214.8" font-family="Times,serif" font-size="14.00">intrometry</text>
</g>
<g id="clust2" class="cluster">
<title>cluster_1</title>
<polygon fill="none" stroke="black" points="538,-8 538,-155 2152,-155 2152,-8 538,-8"/>
<text text-anchor="middle" x="1345" y="-139.8" font-family="Times,serif" font-size="14.00">ariles</text>
</g>
<!-- intrometry_pjmsg_topic -->
<g id="node1" class="node">
<title>intrometry_pjmsg_topic</title>
<g id="a_node1"><a xlink:href="./intrometry_pjmsg_topic/index.html" xlink:title="intrometry_pjmsg_topic">
<ellipse fill="none" stroke="black" cx="401" cy="-181" rx="120.78" ry="18"/>
<text text-anchor="middle" x="401" y="-177.3" font-family="Times,serif" font-size="14.00">intrometry_pjmsg_topic</text>
</a>
</g>
</g>
<!-- intrometry_frontend -->
<g id="node3" class="node">
<title>intrometry_frontend</title>
<g id="a_node3"><a xlink:href="./intrometry_frontend/index.html" xlink:title="intrometry_frontend">
<ellipse fill="none" stroke="black" cx="401" cy="-106" rx="105.08" ry="18"/>
<text text-anchor="middle" x="401" y="-102.3" font-family="Times,serif" font-size="14.00">intrometry_frontend</text>
</a>
</g>
</g>
<!-- intrometry_pjmsg_topic&#45;&gt;intrometry_frontend -->
<g id="edge2" class="edge">
<title>intrometry_pjmsg_topic&#45;&gt;intrometry_frontend</title>
<path fill="none" stroke="#0000ff" d="M400,-162.7C400,-154.25 400,-143.87 400,-134.37"/>
<path fill="none" stroke="#ff0000" d="M402,-162.7C402,-154.25 402,-143.87 402,-134.37"/>
<polygon fill="#0000ff" stroke="#0000ff" points="404.5,-134.18 401,-124.18 397.5,-134.18 404.5,-134.18"/>
</g>
<!-- ariles2_namevalue2_ws -->
<g id="node5" class="node">
<title>ariles2_namevalue2_ws</title>
<g id="a_node5"><a xlink:href="./ariles2_namevalue2_ws/index.html" xlink:title="ariles2_namevalue2_ws">
<ellipse fill="none" stroke="black" cx="890" cy="-106" rx="120.48" ry="18"/>
<text text-anchor="middle" x="890" y="-102.3" font-family="Times,serif" font-size="14.00">ariles2_namevalue2_ws</text>
</a>
</g>
</g>
<!-- intrometry_pjmsg_topic&#45;&gt;ariles2_namevalue2_ws -->
<g id="edge3" class="edge">
<title>intrometry_pjmsg_topic&#45;&gt;ariles2_namevalue2_ws</title>
<path fill="none" stroke="#0000ff" d="M516.25,-174.57C603.53,-170.55 715.85,-163.74 760.79,-154.02 789.52,-147.82 820.58,-136.42 844.95,-126.31"/>
<path fill="none" stroke="#ff0000" d="M516.34,-176.57C603.65,-172.55 715.97,-165.74 761.21,-155.98 790.21,-149.7 821.27,-138.3 845.72,-128.16"/>
<polygon fill="#0000ff" stroke="#0000ff" points="846.84,-130.4 854.69,-123.28 844.11,-123.95 846.84,-130.4"/>
</g>
<!-- thread_supervisor -->
<g id="node12" class="node">
<title>thread_supervisor</title>
<g id="a_node12"><a xlink:href="./thread_supervisor/index.html" xlink:title="thread_supervisor">
<ellipse fill="none" stroke="black" cx="2257" cy="-106" rx="94.78" ry="18"/>
<text text-anchor="middle" x="2257" y="-102.3" font-family="Times,serif" font-size="14.00">thread_supervisor</text>
</a>
</g>
</g>
<!-- intrometry_pjmsg_topic&#45;&gt;thread_supervisor -->
<g id="edge1" class="edge">
<title>intrometry_pjmsg_topic&#45;&gt;thread_supervisor</title>
<path fill="none" stroke="#0000ff" d="M521.81,-178.69C905.62,-177.53 2076.68,-172.48 2155.77,-154.03 2178.65,-148.72 2202.68,-137.56 2221.45,-127.38"/>
<path fill="none" stroke="#ff0000" d="M521.82,-180.69C905.63,-179.53 2076.69,-174.48 2156.23,-155.97 2179.49,-150.53 2203.52,-139.37 2222.4,-129.14"/>
<polygon fill="#0000ff" stroke="#0000ff" points="2223.69,-131.28 2230.72,-123.36 2220.29,-125.17 2223.69,-131.28"/>
</g>
<!-- intrometry_pjmsg_mcap -->
<g id="node2" class="node">
<title>intrometry_pjmsg_mcap</title>
<g id="a_node2"><a xlink:href="./intrometry_pjmsg_mcap/index.html" xlink:title="intrometry_pjmsg_mcap">
<ellipse fill="none" stroke="black" cx="139" cy="-181" rx="122.68" ry="18"/>
<text text-anchor="middle" x="139" y="-177.3" font-family="Times,serif" font-size="14.00">intrometry_pjmsg_mcap</text>
</a>
</g>
</g>
<!-- intrometry_pjmsg_mcap&#45;&gt;intrometry_frontend -->
<g id="edge5" class="edge">
<title>intrometry_pjmsg_mcap&#45;&gt;intrometry_frontend</title>
<path fill="none" stroke="#0000ff" d="M193.34,-163.82C235.58,-152.05 294.12,-135.74 338.24,-123.45"/>
<path fill="none" stroke="#ff0000" d="M193.87,-165.75C236.12,-153.98 294.66,-137.67 338.77,-125.38"/>
<polygon fill="#0000ff" stroke="#0000ff" points="339.56,-127.75 348.25,-121.7 337.68,-121.01 339.56,-127.75"/>
</g>
<!-- intrometry_pjmsg_mcap&#45;&gt;ariles2_namevalue2_ws -->
<g id="edge4" class="edge">
<title>intrometry_pjmsg_mcap&#45;&gt;ariles2_namevalue2_ws</title>
<path fill="none" stroke="#0000ff" d="M222.53,-166.8C238.57,-164.87 255.23,-163.14 270.93,-162 325.33,-158.07 707.51,-164.08 760.81,-154.02 790.09,-148.51 821.63,-136.89 846.11,-126.49"/>
<path fill="none" stroke="#ff0000" d="M222.77,-168.79C238.77,-166.86 255.43,-165.13 271.07,-164 325.29,-160.07 707.47,-166.08 761.19,-155.98 790.78,-150.39 822.32,-138.77 846.89,-128.33"/>
<polygon fill="#0000ff" stroke="#0000ff" points="848.1,-130.53 855.88,-123.34 845.31,-124.11 848.1,-130.53"/>
</g>
<!-- intrometry_pjmsg_mcap&#45;&gt;thread_supervisor -->
<g id="edge6" class="edge">
<title>intrometry_pjmsg_mcap&#45;&gt;thread_supervisor</title>
<path fill="none" stroke="#0000ff" d="M222.17,-166.69C238.31,-164.76 255.11,-163.05 270.93,-162 323.25,-158.54 2104.95,-165.63 2155.78,-154.02 2178.68,-148.83 2202.71,-137.68 2221.47,-127.48"/>
<path fill="none" stroke="#ff0000" d="M222.41,-168.68C238.52,-166.74 255.31,-165.04 271.07,-164 323.24,-160.54 2104.94,-167.63 2156.22,-155.98 2179.52,-150.65 2203.55,-139.49 2222.43,-129.23"/>
<polygon fill="#0000ff" stroke="#0000ff" points="2223.72,-131.37 2230.74,-123.44 2220.31,-125.26 2223.72,-131.37"/>
</g>
<!-- ariles2_core_ws -->
<g id="node11" class="node">
<title>ariles2_core_ws</title>
<g id="a_node11"><a xlink:href="./ariles2_core_ws/index.html" xlink:title="ariles2_core_ws">
<ellipse fill="none" stroke="black" cx="1260" cy="-34" rx="83.69" ry="18"/>
<text text-anchor="middle" x="1260" y="-30.3" font-family="Times,serif" font-size="14.00">ariles2_core_ws</text>
</a>
</g>
</g>
<!-- intrometry_frontend&#45;&gt;ariles2_core_ws -->
<g id="edge7" class="edge">
<title>intrometry_frontend&#45;&gt;ariles2_core_ws</title>
<path fill="none" stroke="#0000ff" d="M463.81,-90.52C485.88,-86.23 510.86,-81.87 533.88,-79.01 760.13,-50.84 1028.25,-40.02 1166.76,-36.09"/>
<path fill="none" stroke="#ff0000" d="M464.2,-92.48C486.22,-88.2 511.21,-83.84 534.12,-80.99 760.22,-52.84 1028.33,-42.02 1166.82,-38.09"/>
<polygon fill="#0000ff" stroke="#0000ff" points="1167.04,-40.58 1176.94,-36.8 1166.85,-33.58 1167.04,-40.58"/>
</g>
<!-- ariles2_ros2param_ws -->
<g id="node4" class="node">
<title>ariles2_ros2param_ws</title>
<g id="a_node4"><a xlink:href="./ariles2_ros2param_ws/index.html" xlink:title="ariles2_ros2param_ws">
<ellipse fill="none" stroke="black" cx="1143" cy="-106" rx="114.28" ry="18"/>
<text text-anchor="middle" x="1143" y="-102.3" font-family="Times,serif" font-size="14.00">ariles2_ros2param_ws</text>
</a>
</g>
</g>
<!-- ariles2_ros2param_ws&#45;&gt;ariles2_core_ws -->
<g id="edge9" class="edge">
<title>ariles2_ros2param_ws&#45;&gt;ariles2_core_ws</title>
<path fill="none" stroke="#0000ff" d="M1170.21,-87.55C1186.21,-77.98 1206.5,-65.84 1223.69,-55.56"/>
<path fill="none" stroke="#ff0000" d="M1171.24,-89.27C1187.24,-79.7 1207.53,-67.56 1224.72,-57.27"/>
<polygon fill="#0000ff" stroke="#0000ff" points="1226.09,-59.37 1232.88,-51.23 1222.5,-53.36 1226.09,-59.37"/>
</g>
<!-- ariles2_namevalue2_ws&#45;&gt;ariles2_core_ws -->
<g id="edge13" class="edge">
<title>ariles2_namevalue2_ws&#45;&gt;ariles2_core_ws</title>
<path fill="none" stroke="#0000ff" d="M960.3,-90.4C979.6,-86.69 1000.51,-82.68 1019.81,-79.02 1076.58,-68.24 1140.94,-56.18 1188.71,-47.26"/>
<path fill="none" stroke="#ff0000" d="M960.68,-92.36C979.97,-88.65 1000.88,-84.65 1020.19,-80.98 1076.95,-70.2 1141.31,-58.14 1189.08,-49.23"/>
<polygon fill="#0000ff" stroke="#0000ff" points="1189.64,-51.66 1198.83,-46.39 1188.35,-44.78 1189.64,-51.66"/>
</g>
<!-- ariles2_yamlcpp_ws -->
<g id="node6" class="node">
<title>ariles2_yamlcpp_ws</title>
<g id="a_node6"><a xlink:href="./ariles2_yamlcpp_ws/index.html" xlink:title="ariles2_yamlcpp_ws">
<ellipse fill="none" stroke="black" cx="649" cy="-106" rx="102.88" ry="18"/>
<text text-anchor="middle" x="649" y="-102.3" font-family="Times,serif" font-size="14.00">ariles2_yamlcpp_ws</text>
</a>
</g>
</g>
<!-- ariles2_yamlcpp_ws&#45;&gt;ariles2_core_ws -->
<g id="edge8" class="edge">
<title>ariles2_yamlcpp_ws&#45;&gt;ariles2_core_ws</title>
<path fill="none" stroke="#0000ff" d="M705.2,-89.93C722.92,-85.91 742.59,-81.86 760.85,-79.01 902.59,-56.9 1068.71,-44.6 1169.07,-38.65"/>
<path fill="none" stroke="#ff0000" d="M705.64,-91.88C723.32,-87.87 742.99,-83.82 761.15,-80.99 902.74,-58.89 1068.86,-46.6 1169.19,-40.64"/>
<polygon fill="#0000ff" stroke="#0000ff" points="1169.45,-43.13 1179.23,-39.06 1169.04,-36.15 1169.45,-43.13"/>
</g>
<!-- ariles2_octave_ws -->
<g id="node7" class="node">
<title>ariles2_octave_ws</title>
<g id="a_node7"><a xlink:href="./ariles2_octave_ws/index.html" xlink:title="ariles2_octave_ws">
<ellipse fill="none" stroke="black" cx="2050" cy="-106" rx="94.48" ry="18"/>
<text text-anchor="middle" x="2050" y="-102.3" font-family="Times,serif" font-size="14.00">ariles2_octave_ws</text>
</a>
</g>
</g>
<!-- ariles2_octave_ws&#45;&gt;ariles2_core_ws -->
<g id="edge12" class="edge">
<title>ariles2_octave_ws&#45;&gt;ariles2_core_ws</title>
<path fill="none" stroke="#0000ff" d="M1998.76,-91.75C1982.31,-87.66 1963.88,-83.59 1946.85,-80.99 1736.52,-48.81 1486.36,-39.63 1353.63,-37.02"/>
<path fill="none" stroke="#ff0000" d="M1999.25,-89.81C1982.74,-85.7 1964.31,-81.64 1947.15,-79.01 1736.6,-46.82 1486.43,-37.63 1353.67,-35.02"/>
<polygon fill="#0000ff" stroke="#0000ff" points="1353.58,-32.52 1343.52,-35.83 1353.45,-39.52 1353.58,-32.52"/>
</g>
<!-- ariles2_rapidjson_ws -->
<g id="node8" class="node">
<title>ariles2_rapidjson_ws</title>
<g id="a_node8"><a xlink:href="./ariles2_rapidjson_ws/index.html" xlink:title="ariles2_rapidjson_ws">
<ellipse fill="none" stroke="black" cx="1831" cy="-106" rx="107.48" ry="18"/>
<text text-anchor="middle" x="1831" y="-102.3" font-family="Times,serif" font-size="14.00">ariles2_rapidjson_ws</text>
</a>
</g>
</g>
<!-- ariles2_rapidjson_ws&#45;&gt;ariles2_core_ws -->
<g id="edge10" class="edge">
<title>ariles2_rapidjson_ws&#45;&gt;ariles2_core_ws</title>
<path fill="none" stroke="#0000ff" d="M1771.72,-91.89C1753.56,-87.92 1733.43,-83.9 1714.85,-80.99 1588.68,-61.22 1441.31,-48.52 1349.3,-41.82"/>
<path fill="none" stroke="#ff0000" d="M1772.15,-89.94C1753.95,-85.96 1733.82,-81.94 1715.15,-79.01 1588.85,-59.22 1441.48,-46.53 1349.44,-39.83"/>
<polygon fill="#0000ff" stroke="#0000ff" points="1349.48,-37.32 1339.26,-40.09 1348.98,-44.3 1349.48,-37.32"/>
</g>
<!-- ariles2_graphviz_ws -->
<g id="node9" class="node">
<title>ariles2_graphviz_ws</title>
<g id="a_node9"><a xlink:href="./ariles2_graphviz_ws/index.html" xlink:title="ariles2_graphviz_ws">
<ellipse fill="none" stroke="black" cx="1601" cy="-106" rx="104.78" ry="18"/>
<text text-anchor="middle" x="1601" y="-102.3" font-family="Times,serif" font-size="14.00">ariles2_graphviz_ws</text>
</a>
</g>
</g>
<!-- ariles2_graphviz_ws&#45;&gt;ariles2_core_ws -->
<g id="edge14" class="edge">
<title>ariles2_graphviz_ws&#45;&gt;ariles2_core_ws</title>
<path fill="none" stroke="#0000ff" d="M1539.6,-92.32C1522.52,-88.57 1503.95,-84.56 1486.8,-80.98 1434.34,-70.03 1374.91,-58.27 1330.02,-49.52"/>
<path fill="none" stroke="#ff0000" d="M1540.03,-90.37C1522.95,-86.62 1504.37,-82.6 1487.2,-79.02 1434.73,-68.07 1375.29,-56.31 1330.4,-47.56"/>
<polygon fill="#0000ff" stroke="#0000ff" points="1330.77,-45.08 1320.29,-46.61 1329.43,-51.95 1330.77,-45.08"/>
</g>
<!-- ariles2_pugixml_ws -->
<g id="node10" class="node">
<title>ariles2_pugixml_ws</title>
<g id="a_node10"><a xlink:href="./ariles2_pugixml_ws/index.html" xlink:title="ariles2_pugixml_ws">
<ellipse fill="none" stroke="black" cx="1377" cy="-106" rx="101.28" ry="18"/>
<text text-anchor="middle" x="1377" y="-102.3" font-family="Times,serif" font-size="14.00">ariles2_pugixml_ws</text>
</a>
</g>
</g>
<!-- ariles2_pugixml_ws&#45;&gt;ariles2_core_ws -->
<g id="edge11" class="edge">
<title>ariles2_pugixml_ws&#45;&gt;ariles2_core_ws</title>
<path fill="none" stroke="#0000ff" d="M1349.06,-89.45C1332.95,-79.81 1312.42,-67.53 1295.08,-57.15"/>
<path fill="none" stroke="#ff0000" d="M1350.08,-87.73C1333.98,-78.09 1313.45,-65.81 1296.11,-55.44"/>
<polygon fill="#0000ff" stroke="#0000ff" points="1297.23,-53.2 1286.86,-51.07 1293.64,-59.21 1297.23,-53.2"/>
</g>
</g>
</svg>
