<?xml version="1.0" encoding="UTF-8" standalone="no"?>
<!DOCTYPE svg PUBLIC "-//W3C//DTD SVG 1.1//EN"
 "http://www.w3.org/Graphics/SVG/1.1/DTD/svg11.dtd">
<!-- Generated by graphviz version 2.43.0 (0)
 -->
<!-- Title: graphname Pages: 1 -->
<svg width="546pt" height="254pt"
 viewBox="0.00 0.00 546.00 254.00" xmlns="http://www.w3.org/2000/svg" xmlns:xlink="http://www.w3.org/1999/xlink">
<g id="graph0" class="graph" transform="scale(1 1) rotate(0) translate(4 250)">
<title>graphname</title>
<polygon fill="white" stroke="transparent" points="-4,4 -4,-250 542,-250 542,4 -4,4"/>
<g id="clust1" class="cluster">
<title>cluster_0</title>
<polygon fill="none" stroke="black" points="8,-91 8,-238 530,-238 530,-91 8,-91"/>
<text text-anchor="middle" x="269" y="-222.8" font-family="Times,serif" font-size="14.00">intrometry</text>
</g>
<g id="clust2" class="cluster">
<title>cluster_1</title>
<polygon fill="none" stroke="black" points="140,-8 140,-83 396,-83 396,-8 140,-8"/>
<text text-anchor="middle" x="268" y="-67.8" font-family="Times,serif" font-size="14.00">ariles</text>
</g>
<!-- intrometry_tests -->
<g id="node1" class="node">
<title>intrometry_tests</title>
<g id="a_node1"><a xlink:href="../intrometry_tests/index.html" xlink:title="intrometry_tests">
<ellipse fill="none" stroke="black" cx="268" cy="-189" rx="88.28" ry="18"/>
<text text-anchor="middle" x="268" y="-185.3" font-family="Times,serif" font-size="14.00">intrometry_tests</text>
</a>
</g>
</g>
<!-- intrometry_pjmsg_topic -->
<g id="node2" class="node">
<title>intrometry_pjmsg_topic</title>
<g id="a_node2"><a xlink:href="../intrometry_pjmsg_topic/index.html" xlink:title="intrometry_pjmsg_topic">
<ellipse fill="none" stroke="black" cx="137" cy="-117" rx="120.78" ry="18"/>
<text text-anchor="middle" x="137" y="-113.3" font-family="Times,serif" font-size="14.00">intrometry_pjmsg_topic</text>
</a>
</g>
</g>
<!-- intrometry_tests&#45;&gt;intrometry_pjmsg_topic -->
<g id="edge1" class="edge">
<title>intrometry_tests&#45;&gt;intrometry_pjmsg_topic</title>
<path fill="none" stroke="#0000ff" d="M237.47,-172.82C219.35,-163.14 196.03,-150.68 176.38,-140.18"/>
<path fill="none" stroke="#ff0000" d="M238.42,-171.06C220.29,-161.37 196.98,-148.91 177.32,-138.41"/>
<polygon fill="#0000ff" stroke="#0000ff" points="178.29,-136.1 167.82,-134.47 174.99,-142.27 178.29,-136.1"/>
</g>
<!-- intrometry_pjmsg_mcap -->
<g id="node3" class="node">
<title>intrometry_pjmsg_mcap</title>
<g id="a_node3"><a xlink:href="../intrometry_pjmsg_mcap/index.html" xlink:title="intrometry_pjmsg_mcap">
<ellipse fill="none" stroke="black" cx="399" cy="-117" rx="122.68" ry="18"/>
<text text-anchor="middle" x="399" y="-113.3" font-family="Times,serif" font-size="14.00">intrometry_pjmsg_mcap</text>
</a>
</g>
</g>
<!-- intrometry_tests&#45;&gt;intrometry_pjmsg_mcap -->
<g id="edge2" class="edge">
<title>intrometry_tests&#45;&gt;intrometry_pjmsg_mcap</title>
<path fill="none" stroke="#0000ff" d="M297.58,-171.06C315.71,-161.37 339.02,-148.91 358.68,-138.41"/>
<path fill="none" stroke="#ff0000" d="M298.53,-172.82C316.65,-163.14 339.97,-150.68 359.62,-140.18"/>
<polygon fill="#0000ff" stroke="#0000ff" points="361.01,-142.27 368.18,-134.47 357.71,-136.1 361.01,-142.27"/>
</g>
<!-- ariles2_namevalue2_ws -->
<g id="node4" class="node">
<title>ariles2_namevalue2_ws</title>
<g id="a_node4"><a xlink:href="../ariles2_namevalue2_ws/index.html" xlink:title="ariles2_namevalue2_ws">
<ellipse fill="none" stroke="black" cx="268" cy="-34" rx="120.48" ry="18"/>
<text text-anchor="middle" x="268" y="-30.3" font-family="Times,serif" font-size="14.00">ariles2_namevalue2_ws</text>
</a>
</g>
</g>
<!-- intrometry_pjmsg_topic&#45;&gt;ariles2_namevalue2_ws -->
<g id="edge3" class="edge">
<title>intrometry_pjmsg_topic&#45;&gt;ariles2_namevalue2_ws</title>
<path fill="none" stroke="#0000ff" d="M163.3,-98.56C183.17,-86.28 210.43,-69.42 232.09,-56.03"/>
<path fill="none" stroke="#ff0000" d="M164.35,-100.26C184.22,-87.98 211.49,-71.12 233.14,-57.73"/>
<polygon fill="#0000ff" stroke="#0000ff" points="234.55,-59.8 241.21,-51.56 230.86,-53.85 234.55,-59.8"/>
</g>
<!-- intrometry_pjmsg_mcap&#45;&gt;ariles2_namevalue2_ws -->
<g id="edge4" class="edge">
<title>intrometry_pjmsg_mcap&#45;&gt;ariles2_namevalue2_ws</title>
<path fill="none" stroke="#0000ff" d="M371.65,-100.26C351.78,-87.98 324.51,-71.12 302.86,-57.73"/>
<path fill="none" stroke="#ff0000" d="M372.7,-98.56C352.83,-86.28 325.57,-69.42 303.91,-56.03"/>
<polygon fill="#0000ff" stroke="#0000ff" points="305.14,-53.85 294.79,-51.56 301.45,-59.8 305.14,-53.85"/>
</g>
</g>
</svg>
