<?xml version="1.0" encoding="UTF-8" standalone="no"?>
<!DOCTYPE svg PUBLIC "-//W3C//DTD SVG 1.1//EN"
 "http://www.w3.org/Graphics/SVG/1.1/DTD/svg11.dtd">
<!-- Generated by graphviz version 2.43.0 (0)
 -->
<!-- Title: mcap::IWritable Pages: 1 -->
<svg width="375pt" height="140pt"
 viewBox="0.00 0.00 374.50 140.00" xmlns="http://www.w3.org/2000/svg" xmlns:xlink="http://www.w3.org/1999/xlink">
<g id="graph0" class="graph" transform="scale(1 1) rotate(0) translate(4 136)">
<title>mcap::IWritable</title>
<polygon fill="white" stroke="transparent" points="-4,4 -4,-136 370.5,-136 370.5,4 -4,4"/>
<!-- Node1 -->
<g id="node1" class="node">
<title>Node1</title>
<g id="a_node1"><a xlink:title="An abstract interface for writing MCAP data.">
<polygon fill="#bfbfbf" stroke="black" points="130,-112.5 130,-131.5 224,-131.5 224,-112.5 130,-112.5"/>
<text text-anchor="middle" x="177" y="-119.5" font-family="Helvetica,sans-Serif" font-size="10.00">mcap::IWritable</text>
</a>
</g>
</g>
<!-- Node2 -->
<g id="node2" class="node">
<title>Node2</title>
<g id="a_node2"><a xlink:href="classmcap_1_1FileWriter.html" target="_top" xlink:title="Implements the IWritable interface used by McapWriter by wrapping a FILE* pointer created by fopen().">
<polygon fill="white" stroke="black" points="6,-56.5 6,-75.5 102,-75.5 102,-56.5 6,-56.5"/>
<text text-anchor="middle" x="54" y="-63.5" font-family="Helvetica,sans-Serif" font-size="10.00">mcap::FileWriter</text>
</a>
</g>
</g>
<!-- Node1&#45;&gt;Node2 -->
<g id="edge1" class="edge">
<title>Node1&#45;&gt;Node2</title>
<path fill="none" stroke="midnightblue" d="M148.23,-108.37C125.19,-98.26 93.52,-84.35 73.4,-75.52"/>
<polygon fill="midnightblue" stroke="midnightblue" points="146.95,-111.63 157.51,-112.44 149.76,-105.22 146.95,-111.63"/>
</g>
<!-- Node3 -->
<g id="node3" class="node">
<title>Node3</title>
<g id="a_node3"><a xlink:href="classmcap_1_1IChunkWriter.html" target="_top" xlink:title="An abstract interface for writing Chunk data. Chunk data is buffered in memory and written to disk as...">
<polygon fill="white" stroke="black" points="120.5,-56.5 120.5,-75.5 233.5,-75.5 233.5,-56.5 120.5,-56.5"/>
<text text-anchor="middle" x="177" y="-63.5" font-family="Helvetica,sans-Serif" font-size="10.00">mcap::IChunkWriter</text>
</a>
</g>
</g>
<!-- Node1&#45;&gt;Node3 -->
<g id="edge2" class="edge">
<title>Node1&#45;&gt;Node3</title>
<path fill="none" stroke="midnightblue" d="M177,-101.8C177,-92.91 177,-82.78 177,-75.75"/>
<polygon fill="midnightblue" stroke="midnightblue" points="173.5,-102.08 177,-112.08 180.5,-102.08 173.5,-102.08"/>
</g>
<!-- Node7 -->
<g id="node7" class="node">
<title>Node7</title>
<g id="a_node7"><a xlink:href="classmcap_1_1StreamWriter.html" target="_top" xlink:title="Implements the IWritable interface used by McapWriter by wrapping a std::ostream stream.">
<polygon fill="white" stroke="black" points="251.5,-56.5 251.5,-75.5 366.5,-75.5 366.5,-56.5 251.5,-56.5"/>
<text text-anchor="middle" x="309" y="-63.5" font-family="Helvetica,sans-Serif" font-size="10.00">mcap::StreamWriter</text>
</a>
</g>
</g>
<!-- Node1&#45;&gt;Node7 -->
<g id="edge6" class="edge">
<title>Node1&#45;&gt;Node7</title>
<path fill="none" stroke="midnightblue" d="M207.22,-108.64C231.99,-98.5 266.4,-84.43 288.18,-75.52"/>
<polygon fill="midnightblue" stroke="midnightblue" points="205.85,-105.42 197.92,-112.44 208.5,-111.9 205.85,-105.42"/>
</g>
<!-- Node4 -->
<g id="node4" class="node">
<title>Node4</title>
<g id="a_node4"><a xlink:href="classmcap_1_1BufferWriter.html" target="_top" xlink:title="An in&#45;memory IChunkWriter implementation backed by a growable buffer.">
<polygon fill="white" stroke="black" points="0,-0.5 0,-19.5 110,-19.5 110,-0.5 0,-0.5"/>
<text text-anchor="middle" x="55" y="-7.5" font-family="Helvetica,sans-Serif" font-size="10.00">mcap::BufferWriter</text>
</a>
</g>
</g>
<!-- Node3&#45;&gt;Node4 -->
<g id="edge3" class="edge">
<title>Node3&#45;&gt;Node4</title>
<path fill="none" stroke="midnightblue" d="M148.46,-52.37C125.61,-42.26 94.19,-28.35 74.24,-19.52"/>
<polygon fill="midnightblue" stroke="midnightblue" points="147.11,-55.6 157.67,-56.44 149.94,-49.2 147.11,-55.6"/>
</g>
<!-- Node5 -->
<g id="node5" class="node">
<title>Node5</title>
<g id="a_node5"><a xlink:href="classmcap_1_1LZ4Writer.html" target="_top" xlink:title="An in&#45;memory IChunkWriter implementation that holds data in a temporary buffer before flushing to an ...">
<polygon fill="white" stroke="black" points="128,-0.5 128,-19.5 226,-19.5 226,-0.5 128,-0.5"/>
<text text-anchor="middle" x="177" y="-7.5" font-family="Helvetica,sans-Serif" font-size="10.00">mcap::LZ4Writer</text>
</a>
</g>
</g>
<!-- Node3&#45;&gt;Node5 -->
<g id="edge4" class="edge">
<title>Node3&#45;&gt;Node5</title>
<path fill="none" stroke="midnightblue" d="M177,-45.8C177,-36.91 177,-26.78 177,-19.75"/>
<polygon fill="midnightblue" stroke="midnightblue" points="173.5,-46.08 177,-56.08 180.5,-46.08 173.5,-46.08"/>
</g>
<!-- Node6 -->
<g id="node6" class="node">
<title>Node6</title>
<g id="a_node6"><a xlink:href="classmcap_1_1ZStdWriter.html" target="_top" xlink:title="An in&#45;memory IChunkWriter implementation that holds data in a temporary buffer before flushing to an ...">
<polygon fill="white" stroke="black" points="244,-0.5 244,-19.5 346,-19.5 346,-0.5 244,-0.5"/>
<text text-anchor="middle" x="295" y="-7.5" font-family="Helvetica,sans-Serif" font-size="10.00">mcap::ZStdWriter</text>
</a>
</g>
</g>
<!-- Node3&#45;&gt;Node6 -->
<g id="edge5" class="edge">
<title>Node3&#45;&gt;Node6</title>
<path fill="none" stroke="midnightblue" d="M204.9,-52.23C226.97,-42.13 257.18,-28.31 276.39,-19.52"/>
<polygon fill="midnightblue" stroke="midnightblue" points="203.33,-49.1 195.7,-56.44 206.25,-55.46 203.33,-49.1"/>
</g>
</g>
</svg>
