<?xml version="1.0" encoding="UTF-8" standalone="no"?>
<!DOCTYPE svg PUBLIC "-//W3C//DTD SVG 1.1//EN"
 "http://www.w3.org/Graphics/SVG/1.1/DTD/svg11.dtd">
<!-- Generated by graphviz version 2.43.0 (0)
 -->
<!-- Title: intrometry::pjmsg_mcap::Sink Pages: 1 -->
<svg width="256pt" height="264pt"
 viewBox="0.00 0.00 256.00 264.00" xmlns="http://www.w3.org/2000/svg" xmlns:xlink="http://www.w3.org/1999/xlink">
<g id="graph0" class="graph" transform="scale(1 1) rotate(0) translate(4 260)">
<title>intrometry::pjmsg_mcap::Sink</title>
<polygon fill="white" stroke="transparent" points="-4,4 -4,-260 252,-260 252,4 -4,4"/>
<!-- Node1 -->
<g id="node1" class="node">
<title>Node1</title>
<g id="a_node1"><a xlink:title="Publish data.">
<polygon fill="#bfbfbf" stroke="black" points="6,-0.5 6,-30.5 142,-30.5 142,-0.5 6,-0.5"/>
<text text-anchor="start" x="14" y="-18.5" font-family="Helvetica,sans-Serif" font-size="10.00">intrometry::pjmsg_mcap</text>
<text text-anchor="middle" x="74" y="-7.5" font-family="Helvetica,sans-Serif" font-size="10.00">::Sink</text>
</a>
</g>
</g>
<!-- Node2 -->
<g id="node2" class="node">
<title>Node2</title>
<g id="a_node2"><a target="_parent" xlink:href="../intrometry_frontend/classintrometry_1_1SinkPIMPLBase.html" xlink:title=" ">
<polygon fill="white" stroke="black" points="0,-68.5 0,-109.5 148,-109.5 148,-68.5 0,-68.5"/>
<text text-anchor="start" x="8" y="-97.5" font-family="Helvetica,sans-Serif" font-size="10.00">intrometry::SinkPIMPLBase</text>
<text text-anchor="start" x="8" y="-86.5" font-family="Helvetica,sans-Serif" font-size="10.00">&lt; sink::Parameters, sink</text>
<text text-anchor="middle" x="74" y="-75.5" font-family="Helvetica,sans-Serif" font-size="10.00">::Implementation &gt;</text>
</a>
</g>
</g>
<!-- Node2&#45;&gt;Node1 -->
<g id="edge1" class="edge">
<title>Node2&#45;&gt;Node1</title>
<path fill="none" stroke="midnightblue" d="M74,-58.16C74,-48.69 74,-38.65 74,-30.8"/>
<polygon fill="midnightblue" stroke="midnightblue" points="70.5,-58.46 74,-68.46 77.5,-58.46 70.5,-58.46"/>
</g>
<!-- Node3 -->
<g id="node3" class="node">
<title>Node3</title>
<g id="a_node3"><a target="_parent" xlink:href="../intrometry_frontend/classintrometry_1_1Sink.html" xlink:title=" ">
<polygon fill="white" stroke="black" points="22.5,-236.5 22.5,-255.5 117.5,-255.5 117.5,-236.5 22.5,-236.5"/>
<text text-anchor="middle" x="70" y="-243.5" font-family="Helvetica,sans-Serif" font-size="10.00">intrometry::Sink</text>
</a>
</g>
</g>
<!-- Node3&#45;&gt;Node2 -->
<g id="edge2" class="edge">
<title>Node3&#45;&gt;Node2</title>
<path fill="none" stroke="midnightblue" d="M70.49,-226C71.25,-196.38 72.72,-139.51 73.5,-109.56"/>
<polygon fill="midnightblue" stroke="midnightblue" points="66.99,-226.14 70.23,-236.22 73.98,-226.32 66.99,-226.14"/>
</g>
<!-- Node4 -->
<g id="node4" class="node">
<title>Node4</title>
<g id="a_node4"><a target="_parent" xlink:href="../intrometry_frontend/classintrometry_1_1SinkPIMPLBase.html" xlink:title=" ">
<polygon fill="white" stroke="black" points="86,-168.5 86,-198.5 234,-198.5 234,-168.5 86,-168.5"/>
<text text-anchor="start" x="94" y="-186.5" font-family="Helvetica,sans-Serif" font-size="10.00">intrometry::SinkPIMPLBase</text>
<text text-anchor="middle" x="160" y="-175.5" font-family="Helvetica,sans-Serif" font-size="10.00">&lt; class, class &gt;</text>
</a>
</g>
</g>
<!-- Node3&#45;&gt;Node4 -->
<g id="edge4" class="edge">
<title>Node3&#45;&gt;Node4</title>
<path fill="none" stroke="midnightblue" d="M91.22,-230.73C105.69,-221.01 124.75,-208.2 139.13,-198.53"/>
<polygon fill="midnightblue" stroke="midnightblue" points="89.24,-227.85 82.89,-236.33 93.15,-233.66 89.24,-227.85"/>
</g>
<!-- Node4&#45;&gt;Node2 -->
<g id="edge3" class="edge">
<title>Node4&#45;&gt;Node2</title>
<path fill="none" stroke="orange" stroke-dasharray="5,2" d="M139.9,-160.88C125.51,-145.4 106.27,-124.71 92.3,-109.68"/>
<polygon fill="orange" stroke="orange" points="137.57,-163.51 146.94,-168.45 142.69,-158.74 137.57,-163.51"/>
<text text-anchor="start" x="129" y="-142" font-family="Helvetica,sans-Serif" font-size="10.00"> &lt; sink::Parameters,</text>
<text text-anchor="middle" x="188.5" y="-131" font-family="Helvetica,sans-Serif" font-size="10.00"> sink::Implementation &gt;</text>
</g>
</g>
</svg>
