<?xml version="1.0" encoding="UTF-8" standalone="no"?>
<!DOCTYPE svg PUBLIC "-//W3C//DTD SVG 1.1//EN"
 "http://www.w3.org/Graphics/SVG/1.1/DTD/svg11.dtd">
<!-- Generated by graphviz version 2.43.0 (0)
 -->
<!-- Title: eprosima::fastcdr::exception::LockedExternalAccessException Pages: 1 -->
<svg width="187pt" height="173pt"
 viewBox="0.00 0.00 187.00 173.00" xmlns="http://www.w3.org/2000/svg" xmlns:xlink="http://www.w3.org/1999/xlink">
<g id="graph0" class="graph" transform="scale(1 1) rotate(0) translate(4 169)">
<title>eprosima::fastcdr::exception::LockedExternalAccessException</title>
<polygon fill="white" stroke="transparent" points="-4,4 -4,-169 183,-169 183,4 -4,4"/>
<!-- Node1 -->
<g id="node1" class="node">
<title>Node1</title>
<g id="a_node1"><a xlink:title="This class is thrown as an exception when accessing to set the value of a locked external.">
<polygon fill="#bfbfbf" stroke="black" points="0,-0.5 0,-41.5 179,-41.5 179,-0.5 0,-0.5"/>
<text text-anchor="start" x="8" y="-29.5" font-family="Helvetica,sans-Serif" font-size="10.00">eprosima::fastcdr::</text>
<text text-anchor="start" x="8" y="-18.5" font-family="Helvetica,sans-Serif" font-size="10.00">exception::LockedExternalAccess</text>
<text text-anchor="middle" x="89.5" y="-7.5" font-family="Helvetica,sans-Serif" font-size="10.00">Exception</text>
</a>
</g>
</g>
<!-- Node2 -->
<g id="node2" class="node">
<title>Node2</title>
<g id="a_node2"><a xlink:href="classeprosima_1_1fastcdr_1_1exception_1_1Exception.html" target="_top" xlink:title="This abstract class is used to create exceptions.">
<polygon fill="white" stroke="black" points="30,-78.5 30,-108.5 149,-108.5 149,-78.5 30,-78.5"/>
<text text-anchor="start" x="38" y="-96.5" font-family="Helvetica,sans-Serif" font-size="10.00">eprosima::fastcdr::</text>
<text text-anchor="middle" x="89.5" y="-85.5" font-family="Helvetica,sans-Serif" font-size="10.00">exception::Exception</text>
</a>
</g>
</g>
<!-- Node2&#45;&gt;Node1 -->
<g id="edge1" class="edge">
<title>Node2&#45;&gt;Node1</title>
<path fill="none" stroke="midnightblue" d="M89.5,-67.98C89.5,-59.35 89.5,-49.76 89.5,-41.59"/>
<polygon fill="midnightblue" stroke="midnightblue" points="86,-68.23 89.5,-78.23 93,-68.23 86,-68.23"/>
</g>
<!-- Node3 -->
<g id="node3" class="node">
<title>Node3</title>
<g id="a_node3"><a target="_parent" xlink:href="http://en.cppreference.com/w/cpp/error/exception.html" xlink:title=" ">
<polygon fill="white" stroke="black" points="46.5,-145.5 46.5,-164.5 132.5,-164.5 132.5,-145.5 46.5,-145.5"/>
<text text-anchor="middle" x="89.5" y="-152.5" font-family="Helvetica,sans-Serif" font-size="10.00">std::exception</text>
</a>
</g>
</g>
<!-- Node3&#45;&gt;Node2 -->
<g id="edge2" class="edge">
<title>Node3&#45;&gt;Node2</title>
<path fill="none" stroke="midnightblue" d="M89.5,-135.23C89.5,-126.59 89.5,-116.5 89.5,-108.52"/>
<polygon fill="midnightblue" stroke="midnightblue" points="86,-135.48 89.5,-145.48 93,-135.48 86,-135.48"/>
</g>
</g>
</svg>
