<?xml version="1.0" encoding="UTF-8" standalone="no"?>
<!DOCTYPE svg PUBLIC "-//W3C//DTD SVG 1.1//EN"
 "http://www.w3.org/Graphics/SVG/1.1/DTD/svg11.dtd">
<!-- Generated by graphviz version 2.43.0 (0)
 -->
<!-- Title: mcap::ICompressedReader Pages: 1 -->
<svg width="368pt" height="140pt"
 viewBox="0.00 0.00 367.50 140.00" xmlns="http://www.w3.org/2000/svg" xmlns:xlink="http://www.w3.org/1999/xlink">
<g id="graph0" class="graph" transform="scale(1 1) rotate(0) translate(4 136)">
<title>mcap::ICompressedReader</title>
<polygon fill="white" stroke="transparent" points="-4,4 -4,-136 363.5,-136 363.5,4 -4,4"/>
<!-- Node1 -->
<g id="node1" class="node">
<title>Node1</title>
<g id="a_node1"><a xlink:title="An abstract interface for compressed readers.">
<polygon fill="#bfbfbf" stroke="black" points="109,-56.5 109,-75.5 257,-75.5 257,-56.5 109,-56.5"/>
<text text-anchor="middle" x="183" y="-63.5" font-family="Helvetica,sans-Serif" font-size="10.00">mcap::ICompressedReader</text>
</a>
</g>
</g>
<!-- Node3 -->
<g id="node3" class="node">
<title>Node3</title>
<g id="a_node3"><a xlink:href="classmcap_1_1BufferReader.html" target="_top" xlink:title="A &quot;null&quot; compressed reader that directly passes through uncompressed data. No internal buffers are al...">
<polygon fill="white" stroke="black" points="0,-0.5 0,-19.5 114,-19.5 114,-0.5 0,-0.5"/>
<text text-anchor="middle" x="57" y="-7.5" font-family="Helvetica,sans-Serif" font-size="10.00">mcap::BufferReader</text>
</a>
</g>
</g>
<!-- Node1&#45;&gt;Node3 -->
<g id="edge2" class="edge">
<title>Node1&#45;&gt;Node3</title>
<path fill="none" stroke="midnightblue" d="M153.84,-52.5C130.22,-42.38 97.57,-28.39 76.87,-19.52"/>
<polygon fill="midnightblue" stroke="midnightblue" points="152.46,-55.72 163.03,-56.44 155.22,-49.29 152.46,-55.72"/>
</g>
<!-- Node4 -->
<g id="node4" class="node">
<title>Node4</title>
<g id="a_node4"><a xlink:href="classmcap_1_1LZ4Reader.html" target="_top" xlink:title="ICompressedReader implementation that decompresses LZ4 (https://lz4.github.io/lz4/) data.">
<polygon fill="white" stroke="black" points="132,-0.5 132,-19.5 234,-19.5 234,-0.5 132,-0.5"/>
<text text-anchor="middle" x="183" y="-7.5" font-family="Helvetica,sans-Serif" font-size="10.00">mcap::LZ4Reader</text>
</a>
</g>
</g>
<!-- Node1&#45;&gt;Node4 -->
<g id="edge3" class="edge">
<title>Node1&#45;&gt;Node4</title>
<path fill="none" stroke="midnightblue" d="M183,-45.8C183,-36.91 183,-26.78 183,-19.75"/>
<polygon fill="midnightblue" stroke="midnightblue" points="179.5,-46.08 183,-56.08 186.5,-46.08 179.5,-46.08"/>
</g>
<!-- Node5 -->
<g id="node5" class="node">
<title>Node5</title>
<g id="a_node5"><a xlink:href="classmcap_1_1ZStdReader.html" target="_top" xlink:title="ICompressedReader implementation that decompresses Zstandard (https://facebook.github....">
<polygon fill="white" stroke="black" points="252.5,-0.5 252.5,-19.5 359.5,-19.5 359.5,-0.5 252.5,-0.5"/>
<text text-anchor="middle" x="306" y="-7.5" font-family="Helvetica,sans-Serif" font-size="10.00">mcap::ZStdReader</text>
</a>
</g>
</g>
<!-- Node1&#45;&gt;Node5 -->
<g id="edge4" class="edge">
<title>Node1&#45;&gt;Node5</title>
<path fill="none" stroke="midnightblue" d="M211.77,-52.37C234.81,-42.26 266.48,-28.35 286.6,-19.52"/>
<polygon fill="midnightblue" stroke="midnightblue" points="210.24,-49.22 202.49,-56.44 213.05,-55.63 210.24,-49.22"/>
</g>
<!-- Node2 -->
<g id="node2" class="node">
<title>Node2</title>
<g id="a_node2"><a xlink:href="structmcap_1_1IReadable.html" target="_top" xlink:title="An abstract interface for reading MCAP data.">
<polygon fill="white" stroke="black" points="134,-112.5 134,-131.5 232,-131.5 232,-112.5 134,-112.5"/>
<text text-anchor="middle" x="183" y="-119.5" font-family="Helvetica,sans-Serif" font-size="10.00">mcap::IReadable</text>
</a>
</g>
</g>
<!-- Node2&#45;&gt;Node1 -->
<g id="edge1" class="edge">
<title>Node2&#45;&gt;Node1</title>
<path fill="none" stroke="midnightblue" d="M183,-101.8C183,-92.91 183,-82.78 183,-75.75"/>
<polygon fill="midnightblue" stroke="midnightblue" points="179.5,-102.08 183,-112.08 186.5,-102.08 179.5,-102.08"/>
</g>
</g>
</svg>
