<?xml version="1.0" encoding="UTF-8" standalone="no"?>
<!DOCTYPE svg PUBLIC "-//W3C//DTD SVG 1.1//EN"
 "http://www.w3.org/Graphics/SVG/1.1/DTD/svg11.dtd">
<!-- Generated by graphviz version 2.43.0 (0)
 -->
<!-- Title: cpp Pages: 1 -->
<svg width="198pt" height="159pt"
 viewBox="0.00 0.00 198.00 159.00" xmlns="http://www.w3.org/2000/svg" xmlns:xlink="http://www.w3.org/1999/xlink">
<g id="graph0" class="graph" transform="scale(1 1) rotate(0) translate(4 155)">
<title>cpp</title>
<polygon fill="white" stroke="transparent" points="-4,4 -4,-155 194,-155 194,4 -4,4"/>
<g id="clust1" class="cluster">
<title>clusterdir_d1be4931ac18e30f725847d1d011e98c</title>
<g id="a_clust1"><a xlink:href="dir_d1be4931ac18e30f725847d1d011e98c.html" target="_top" xlink:title="src">
<polygon fill="#ddddee" stroke="black" points="8,-56 8,-143 182,-143 182,-56 8,-56"/>
<text text-anchor="middle" x="95" y="-131" font-family="Helvetica,sans-Serif" font-size="10.00">src</text>
</a>
</g>
</g>
<g id="clust2" class="cluster">
<title>clusterdir_64134a0420e0843a78bf8176f37d0c5a</title>
<g id="a_clust2"><a xlink:href="dir_64134a0420e0843a78bf8176f37d0c5a.html" target="_top">
<polygon fill="#eeeeff" stroke="black" points="16,-64 16,-116 174,-116 174,-64 16,-64"/>
</a>
</g>
</g>
<!-- dir_64134a0420e0843a78bf8176f37d0c5a -->
<g id="node1" class="node">
<title>dir_64134a0420e0843a78bf8176f37d0c5a</title>
<text text-anchor="middle" x="139" y="-87.5" font-family="Helvetica,sans-Serif" font-size="10.00">cpp</text>
</g>
<!-- dir_d805478b2ecc6c9760404054b332374f -->
<g id="node3" class="node">
<title>dir_d805478b2ecc6c9760404054b332374f</title>
<g id="a_node3"><a xlink:href="dir_d805478b2ecc6c9760404054b332374f.html" target="_top" xlink:title="include">
<polygon fill="white" stroke="red" points="126,-36 72,-36 72,0 126,0 126,-36"/>
<text text-anchor="middle" x="99" y="-15.5" font-family="Helvetica,sans-Serif" font-size="10.00">include</text>
</a>
</g>
</g>
<!-- dir_64134a0420e0843a78bf8176f37d0c5a&#45;&gt;dir_d805478b2ecc6c9760404054b332374f -->
<g id="edge1" class="edge">
<title>dir_64134a0420e0843a78bf8176f37d0c5a&#45;&gt;dir_d805478b2ecc6c9760404054b332374f</title>
<path fill="none" stroke="black" d="M129.11,-71.7C124.51,-63.64 118.94,-53.89 113.85,-44.98"/>
<polygon fill="black" stroke="black" points="116.77,-43.05 108.77,-36.1 110.7,-46.52 116.77,-43.05"/>
<g id="a_edge1&#45;headlabel"><a xlink:href="dir_000007_000009.html" target="_top" xlink:title="10">
<text text-anchor="middle" x="121.02" y="-42.26" font-family="Helvetica,sans-Serif" font-size="10.00">10</text>
</a>
</g>
</g>
<!-- dir_3d4ee7b19511a4a15d5ad397c40c87b9 -->
<g id="node2" class="node">
<title>dir_3d4ee7b19511a4a15d5ad397c40c87b9</title>
<g id="a_node2"><a xlink:href="dir_3d4ee7b19511a4a15d5ad397c40c87b9.html" target="_top" xlink:title="exceptions">
<polygon fill="white" stroke="black" points="94,-108 24,-108 24,-72 94,-72 94,-108"/>
<text text-anchor="middle" x="59" y="-87.5" font-family="Helvetica,sans-Serif" font-size="10.00">exceptions</text>
</a>
</g>
</g>
<!-- dir_3d4ee7b19511a4a15d5ad397c40c87b9&#45;&gt;dir_d805478b2ecc6c9760404054b332374f -->
<g id="edge2" class="edge">
<title>dir_3d4ee7b19511a4a15d5ad397c40c87b9&#45;&gt;dir_d805478b2ecc6c9760404054b332374f</title>
<path fill="none" stroke="black" d="M68.89,-71.7C73.49,-63.64 79.06,-53.89 84.15,-44.98"/>
<polygon fill="black" stroke="black" points="87.3,-46.52 89.23,-36.1 81.23,-43.05 87.3,-46.52"/>
<g id="a_edge2&#45;headlabel"><a xlink:href="dir_000008_000009.html" target="_top" xlink:title="5">
<text text-anchor="middle" x="87.99" y="-48.55" font-family="Helvetica,sans-Serif" font-size="10.00">5</text>
</a>
</g>
</g>
</g>
</svg>
