<?xml version="1.0" encoding="UTF-8" standalone="no"?>
<!DOCTYPE svg PUBLIC "-//W3C//DTD SVG 1.1//EN"
 "http://www.w3.org/Graphics/SVG/1.1/DTD/svg11.dtd">
<!-- Generated by graphviz version 2.43.0 (0)
 -->
<!-- Title: 3rdparty Pages: 1 -->
<svg width="270pt" height="183pt"
 viewBox="0.00 0.00 270.00 183.00" xmlns="http://www.w3.org/2000/svg" xmlns:xlink="http://www.w3.org/1999/xlink">
<g id="graph0" class="graph" transform="scale(1 1) rotate(0) translate(4 179)">
<title>3rdparty</title>
<polygon fill="white" stroke="transparent" points="-4,4 -4,-179 266,-179 266,4 -4,4"/>
<g id="clust1" class="cluster">
<title>clusterdir_68267d1309a1af8e8297ef4c3efbcdba</title>
<g id="a_clust1"><a xlink:href="dir_68267d1309a1af8e8297ef4c3efbcdba.html" target="_top" xlink:title="src">
<polygon fill="#ddddee" stroke="black" points="8,-8 8,-167 254,-167 254,-8 8,-8"/>
<text text-anchor="middle" x="131" y="-155" font-family="Helvetica,sans-Serif" font-size="10.00">src</text>
</a>
</g>
</g>
<g id="clust2" class="cluster">
<title>clusterdir_45bd1f1e17bf86d535a7d8d624f251d4</title>
<g id="a_clust2"><a xlink:href="dir_45bd1f1e17bf86d535a7d8d624f251d4.html" target="_top">
<polygon fill="#eeeeff" stroke="black" points="16,-16 16,-140 246,-140 246,-16 16,-16"/>
</a>
</g>
</g>
<!-- dir_45bd1f1e17bf86d535a7d8d624f251d4 -->
<g id="node1" class="node">
<title>dir_45bd1f1e17bf86d535a7d8d624f251d4</title>
<text text-anchor="middle" x="209" y="-111.5" font-family="Helvetica,sans-Serif" font-size="10.00">3rdparty</text>
</g>
<!-- dir_c85d734497a91e8ca2b910f55457c21e -->
<g id="node2" class="node">
<title>dir_c85d734497a91e8ca2b910f55457c21e</title>
<g id="a_node2"><a xlink:href="dir_c85d734497a91e8ca2b910f55457c21e.html" target="_top" xlink:title="fastcdr">
<polygon fill="white" stroke="red" points="156,-60 102,-60 102,-24 156,-24 156,-60"/>
<text text-anchor="middle" x="129" y="-39.5" font-family="Helvetica,sans-Serif" font-size="10.00">fastcdr</text>
</a>
</g>
</g>
<!-- dir_3dcc2b2798d3e431445af1dfbfefa094 -->
<g id="node3" class="node">
<title>dir_3dcc2b2798d3e431445af1dfbfefa094</title>
<g id="a_node3"><a xlink:href="dir_3dcc2b2798d3e431445af1dfbfefa094.html" target="_top" xlink:title="generated">
<polygon fill="white" stroke="black" points="162,-132 96,-132 96,-96 162,-96 162,-132"/>
<text text-anchor="middle" x="129" y="-111.5" font-family="Helvetica,sans-Serif" font-size="10.00">generated</text>
</a>
</g>
</g>
<!-- dir_3dcc2b2798d3e431445af1dfbfefa094&#45;&gt;dir_c85d734497a91e8ca2b910f55457c21e -->
<g id="edge1" class="edge">
<title>dir_3dcc2b2798d3e431445af1dfbfefa094&#45;&gt;dir_c85d734497a91e8ca2b910f55457c21e</title>
<path fill="none" stroke="black" d="M129,-95.7C129,-87.98 129,-78.71 129,-70.11"/>
<polygon fill="black" stroke="black" points="132.5,-70.1 129,-60.1 125.5,-70.1 132.5,-70.1"/>
<g id="a_edge1&#45;headlabel"><a xlink:href="dir_000021_000005.html" target="_top" xlink:title="14">
<text text-anchor="middle" x="135.34" y="-71.2" font-family="Helvetica,sans-Serif" font-size="10.00">14</text>
</a>
</g>
</g>
<!-- dir_c67178849648533c1d54cf80a44ce1dc -->
<g id="node4" class="node">
<title>dir_c67178849648533c1d54cf80a44ce1dc</title>
<g id="a_node4"><a xlink:href="dir_c67178849648533c1d54cf80a44ce1dc.html" target="_top" xlink:title="mcap">
<polygon fill="white" stroke="red" points="78,-132 24,-132 24,-96 78,-96 78,-132"/>
<text text-anchor="middle" x="51" y="-111.5" font-family="Helvetica,sans-Serif" font-size="10.00">mcap</text>
</a>
</g>
</g>
</g>
</svg>
