<?xml version="1.0" encoding="UTF-8" standalone="no"?>
<!DOCTYPE svg PUBLIC "-//W3C//DTD SVG 1.1//EN"
 "http://www.w3.org/Graphics/SVG/1.1/DTD/svg11.dtd">
<!-- Generated by graphviz version 2.43.0 (0)
 -->
<!-- Title: fastcdr Pages: 1 -->
<svg width="182pt" height="183pt"
 viewBox="0.00 0.00 182.00 183.00" xmlns="http://www.w3.org/2000/svg" xmlns:xlink="http://www.w3.org/1999/xlink">
<g id="graph0" class="graph" transform="scale(1 1) rotate(0) translate(4 179)">
<title>fastcdr</title>
<polygon fill="white" stroke="transparent" points="-4,4 -4,-179 178,-179 178,4 -4,4"/>
<g id="clust1" class="cluster">
<title>clusterdir_45bd1f1e17bf86d535a7d8d624f251d4</title>
<g id="a_clust1"><a xlink:href="dir_45bd1f1e17bf86d535a7d8d624f251d4.html" target="_top" xlink:title="3rdparty">
<polygon fill="#ddddee" stroke="black" points="8,-8 8,-167 166,-167 166,-8 8,-8"/>
<text text-anchor="middle" x="87" y="-155" font-family="Helvetica,sans-Serif" font-size="10.00">3rdparty</text>
</a>
</g>
</g>
<g id="clust2" class="cluster">
<title>clusterdir_c85d734497a91e8ca2b910f55457c21e</title>
<g id="a_clust2"><a xlink:href="dir_c85d734497a91e8ca2b910f55457c21e.html" target="_top">
<polygon fill="#eeeeff" stroke="black" points="16,-16 16,-140 158,-140 158,-16 16,-16"/>
</a>
</g>
</g>
<!-- dir_c85d734497a91e8ca2b910f55457c21e -->
<g id="node1" class="node">
<title>dir_c85d734497a91e8ca2b910f55457c21e</title>
<text text-anchor="middle" x="123" y="-111.5" font-family="Helvetica,sans-Serif" font-size="10.00">fastcdr</text>
</g>
<!-- dir_d805478b2ecc6c9760404054b332374f -->
<g id="node2" class="node">
<title>dir_d805478b2ecc6c9760404054b332374f</title>
<g id="a_node2"><a xlink:href="dir_d805478b2ecc6c9760404054b332374f.html" target="_top" xlink:title="include">
<polygon fill="white" stroke="red" points="78,-60 24,-60 24,-24 78,-24 78,-60"/>
<text text-anchor="middle" x="51" y="-39.5" font-family="Helvetica,sans-Serif" font-size="10.00">include</text>
</a>
</g>
</g>
<!-- dir_d1be4931ac18e30f725847d1d011e98c -->
<g id="node3" class="node">
<title>dir_d1be4931ac18e30f725847d1d011e98c</title>
<g id="a_node3"><a xlink:href="dir_d1be4931ac18e30f725847d1d011e98c.html" target="_top" xlink:title="src">
<polygon fill="white" stroke="red" points="78,-132 24,-132 24,-96 78,-96 78,-132"/>
<text text-anchor="middle" x="51" y="-111.5" font-family="Helvetica,sans-Serif" font-size="10.00">src</text>
</a>
</g>
</g>
<!-- dir_d1be4931ac18e30f725847d1d011e98c&#45;&gt;dir_d805478b2ecc6c9760404054b332374f -->
<g id="edge1" class="edge">
<title>dir_d1be4931ac18e30f725847d1d011e98c&#45;&gt;dir_d805478b2ecc6c9760404054b332374f</title>
<path fill="none" stroke="black" d="M51,-95.7C51,-87.98 51,-78.71 51,-70.11"/>
<polygon fill="black" stroke="black" points="54.5,-70.1 51,-60.1 47.5,-70.1 54.5,-70.1"/>
<g id="a_edge1&#45;headlabel"><a xlink:href="dir_000006_000009.html" target="_top" xlink:title="10">
<text text-anchor="middle" x="57.34" y="-71.2" font-family="Helvetica,sans-Serif" font-size="10.00">10</text>
</a>
</g>
</g>
</g>
</svg>
