<?xml version="1.0" encoding="UTF-8" standalone="no"?>
<!DOCTYPE svg PUBLIC "-//W3C//DTD SVG 1.1//EN"
 "http://www.w3.org/Graphics/SVG/1.1/DTD/svg11.dtd">
<!-- Generated by graphviz version 2.43.0 (0)
 -->
<!-- Title: generated Pages: 1 -->
<svg width="106pt" height="167pt"
 viewBox="0.00 0.00 106.00 167.00" xmlns="http://www.w3.org/2000/svg" xmlns:xlink="http://www.w3.org/1999/xlink">
<g id="graph0" class="graph" transform="scale(1 1) rotate(0) translate(4 163)">
<title>generated</title>
<polygon fill="white" stroke="transparent" points="-4,4 -4,-163 102,-163 102,4 -4,4"/>
<g id="clust1" class="cluster">
<title>clusterdir_45bd1f1e17bf86d535a7d8d624f251d4</title>
<g id="a_clust1"><a xlink:href="dir_45bd1f1e17bf86d535a7d8d624f251d4.html" target="_top" xlink:title="3rdparty">
<polygon fill="#ddddee" stroke="black" points="8,-8 8,-151 90,-151 90,-8 8,-8"/>
<text text-anchor="middle" x="49" y="-139" font-family="Helvetica,sans-Serif" font-size="10.00">3rdparty</text>
</a>
</g>
</g>
<!-- dir_c85d734497a91e8ca2b910f55457c21e -->
<g id="node1" class="node">
<title>dir_c85d734497a91e8ca2b910f55457c21e</title>
<g id="a_node1"><a xlink:href="dir_c85d734497a91e8ca2b910f55457c21e.html" target="_top" xlink:title="fastcdr">
<polygon fill="white" stroke="red" points="76,-52 22,-52 22,-16 76,-16 76,-52"/>
<text text-anchor="middle" x="49" y="-31.5" font-family="Helvetica,sans-Serif" font-size="10.00">fastcdr</text>
</a>
</g>
</g>
<!-- dir_3dcc2b2798d3e431445af1dfbfefa094 -->
<g id="node2" class="node">
<title>dir_3dcc2b2798d3e431445af1dfbfefa094</title>
<g id="a_node2"><a xlink:href="dir_3dcc2b2798d3e431445af1dfbfefa094.html" target="_top" xlink:title="generated">
<polygon fill="#eeeeff" stroke="black" points="82,-124 16,-124 16,-88 82,-88 82,-124"/>
<text text-anchor="middle" x="49" y="-103.5" font-family="Helvetica,sans-Serif" font-size="10.00">generated</text>
</a>
</g>
</g>
<!-- dir_3dcc2b2798d3e431445af1dfbfefa094&#45;&gt;dir_c85d734497a91e8ca2b910f55457c21e -->
<g id="edge1" class="edge">
<title>dir_3dcc2b2798d3e431445af1dfbfefa094&#45;&gt;dir_c85d734497a91e8ca2b910f55457c21e</title>
<path fill="none" stroke="black" d="M49,-87.7C49,-79.98 49,-70.71 49,-62.11"/>
<polygon fill="black" stroke="black" points="52.5,-62.1 49,-52.1 45.5,-62.1 52.5,-62.1"/>
<g id="a_edge1&#45;headlabel"><a xlink:href="dir_000021_000005.html" target="_top" xlink:title="14">
<text text-anchor="middle" x="55.34" y="-63.2" font-family="Helvetica,sans-Serif" font-size="10.00">14</text>
</a>
</g>
</g>
</g>
</svg>
