<?xml version="1.0" encoding="UTF-8" standalone="no"?>
<!DOCTYPE svg PUBLIC "-//W3C//DTD SVG 1.1//EN"
 "http://www.w3.org/Graphics/SVG/1.1/DTD/svg11.dtd">
<!-- Generated by graphviz version 2.43.0 (0)
 -->
<!-- Title: xcdr Pages: 1 -->
<svg width="190pt" height="183pt"
 viewBox="0.00 0.00 190.00 183.00" xmlns="http://www.w3.org/2000/svg" xmlns:xlink="http://www.w3.org/1999/xlink">
<g id="graph0" class="graph" transform="scale(1 1) rotate(0) translate(4 179)">
<title>xcdr</title>
<polygon fill="white" stroke="transparent" points="-4,4 -4,-179 186,-179 186,4 -4,4"/>
<g id="clust1" class="cluster">
<title>clusterdir_c99c0b03fd74119f7b646f8e15bc5edd</title>
<g id="a_clust1"><a xlink:href="dir_c99c0b03fd74119f7b646f8e15bc5edd.html" target="_top" xlink:title="fastcdr">
<polygon fill="#ddddee" stroke="black" points="8,-8 8,-167 174,-167 174,-8 8,-8"/>
<text text-anchor="middle" x="91" y="-155" font-family="Helvetica,sans-Serif" font-size="10.00">fastcdr</text>
</a>
</g>
</g>
<g id="clust2" class="cluster">
<title>clusterdir_369dabe123915881fb1f6d3ad3cc5431</title>
<g id="a_clust2"><a xlink:href="dir_369dabe123915881fb1f6d3ad3cc5431.html" target="_top">
<polygon fill="#eeeeff" stroke="black" points="16,-16 16,-140 86,-140 86,-16 16,-16"/>
</a>
</g>
</g>
<!-- dir_52f0917670858f6167180be9c0e2d1d6 -->
<g id="node1" class="node">
<title>dir_52f0917670858f6167180be9c0e2d1d6</title>
<g id="a_node1"><a xlink:href="dir_52f0917670858f6167180be9c0e2d1d6.html" target="_top" xlink:title="exceptions">
<polygon fill="none" stroke="black" points="166,-60 96,-60 96,-24 166,-24 166,-60"/>
<text text-anchor="middle" x="131" y="-39.5" font-family="Helvetica,sans-Serif" font-size="10.00">exceptions</text>
</a>
</g>
</g>
<!-- dir_369dabe123915881fb1f6d3ad3cc5431 -->
<g id="node2" class="node">
<title>dir_369dabe123915881fb1f6d3ad3cc5431</title>
<text text-anchor="middle" x="51" y="-111.5" font-family="Helvetica,sans-Serif" font-size="10.00">xcdr</text>
</g>
<!-- dir_369dabe123915881fb1f6d3ad3cc5431&#45;&gt;dir_52f0917670858f6167180be9c0e2d1d6 -->
<g id="edge2" class="edge">
<title>dir_369dabe123915881fb1f6d3ad3cc5431&#45;&gt;dir_52f0917670858f6167180be9c0e2d1d6</title>
<path fill="none" stroke="black" d="M70.78,-95.7C80.75,-86.97 93.01,-76.24 103.86,-66.75"/>
<polygon fill="black" stroke="black" points="106.23,-69.32 111.45,-60.1 101.62,-64.06 106.23,-69.32"/>
<g id="a_edge2&#45;headlabel"><a xlink:href="dir_000019_000011.html" target="_top" xlink:title="2">
<text text-anchor="middle" x="105.4" y="-71.33" font-family="Helvetica,sans-Serif" font-size="10.00">2</text>
</a>
</g>
</g>
<!-- dir_46fb8c464d6fe77aec2ca3c4f6d45705 -->
<g id="node3" class="node">
<title>dir_46fb8c464d6fe77aec2ca3c4f6d45705</title>
<g id="a_node3"><a xlink:href="dir_46fb8c464d6fe77aec2ca3c4f6d45705.html" target="_top" xlink:title="detail">
<polygon fill="white" stroke="black" points="78,-60 24,-60 24,-24 78,-24 78,-60"/>
<text text-anchor="middle" x="51" y="-39.5" font-family="Helvetica,sans-Serif" font-size="10.00">detail</text>
</a>
</g>
</g>
<!-- dir_369dabe123915881fb1f6d3ad3cc5431&#45;&gt;dir_46fb8c464d6fe77aec2ca3c4f6d45705 -->
<g id="edge1" class="edge">
<title>dir_369dabe123915881fb1f6d3ad3cc5431&#45;&gt;dir_46fb8c464d6fe77aec2ca3c4f6d45705</title>
<path fill="none" stroke="black" d="M51,-95.7C51,-87.98 51,-78.71 51,-70.11"/>
<polygon fill="black" stroke="black" points="54.5,-70.1 51,-60.1 47.5,-70.1 54.5,-70.1"/>
<g id="a_edge1&#45;headlabel"><a xlink:href="dir_000019_000024.html" target="_top" xlink:title="1">
<text text-anchor="middle" x="57.34" y="-71.2" font-family="Helvetica,sans-Serif" font-size="10.00">1</text>
</a>
</g>
</g>
</g>
</svg>
