<?xml version="1.0" encoding="UTF-8" standalone="no"?>
<!DOCTYPE svg PUBLIC "-//W3C//DTD SVG 1.1//EN"
 "http://www.w3.org/Graphics/SVG/1.1/DTD/svg11.dtd">
<!-- Generated by graphviz version 2.43.0 (0)
 -->
<!-- Title: src Pages: 1 -->
<svg width="182pt" height="175pt"
 viewBox="0.00 0.00 182.00 175.00" xmlns="http://www.w3.org/2000/svg" xmlns:xlink="http://www.w3.org/1999/xlink">
<g id="graph0" class="graph" transform="scale(1 1) rotate(0) translate(4 171)">
<title>src</title>
<polygon fill="white" stroke="transparent" points="-4,4 -4,-171 178,-171 178,4 -4,4"/>
<g id="clust1" class="cluster">
<title>clusterdir_c85d734497a91e8ca2b910f55457c21e</title>
<g id="a_clust1"><a xlink:href="dir_c85d734497a91e8ca2b910f55457c21e.html" target="_top" xlink:title="fastcdr">
<polygon fill="#ddddee" stroke="black" points="8,-8 8,-159 166,-159 166,-8 8,-8"/>
<text text-anchor="middle" x="87" y="-147" font-family="Helvetica,sans-Serif" font-size="10.00">fastcdr</text>
</a>
</g>
</g>
<g id="clust2" class="cluster">
<title>clusterdir_d1be4931ac18e30f725847d1d011e98c</title>
<g id="a_clust2"><a xlink:href="dir_d1be4931ac18e30f725847d1d011e98c.html" target="_top">
<polygon fill="#eeeeff" stroke="black" points="16,-80 16,-132 158,-132 158,-80 16,-80"/>
</a>
</g>
</g>
<!-- dir_d805478b2ecc6c9760404054b332374f -->
<g id="node1" class="node">
<title>dir_d805478b2ecc6c9760404054b332374f</title>
<g id="a_node1"><a xlink:href="dir_d805478b2ecc6c9760404054b332374f.html" target="_top" xlink:title="include">
<polygon fill="white" stroke="red" points="78,-52 24,-52 24,-16 78,-16 78,-52"/>
<text text-anchor="middle" x="51" y="-31.5" font-family="Helvetica,sans-Serif" font-size="10.00">include</text>
</a>
</g>
</g>
<!-- dir_d1be4931ac18e30f725847d1d011e98c -->
<g id="node2" class="node">
<title>dir_d1be4931ac18e30f725847d1d011e98c</title>
<text text-anchor="middle" x="123" y="-103.5" font-family="Helvetica,sans-Serif" font-size="10.00">src</text>
</g>
<!-- dir_64134a0420e0843a78bf8176f37d0c5a -->
<g id="node3" class="node">
<title>dir_64134a0420e0843a78bf8176f37d0c5a</title>
<g id="a_node3"><a xlink:href="dir_64134a0420e0843a78bf8176f37d0c5a.html" target="_top" xlink:title="cpp">
<polygon fill="white" stroke="red" points="78,-124 24,-124 24,-88 78,-88 78,-124"/>
<text text-anchor="middle" x="51" y="-103.5" font-family="Helvetica,sans-Serif" font-size="10.00">cpp</text>
</a>
</g>
</g>
<!-- dir_64134a0420e0843a78bf8176f37d0c5a&#45;&gt;dir_d805478b2ecc6c9760404054b332374f -->
<g id="edge1" class="edge">
<title>dir_64134a0420e0843a78bf8176f37d0c5a&#45;&gt;dir_d805478b2ecc6c9760404054b332374f</title>
<path fill="none" stroke="black" d="M51,-87.7C51,-79.98 51,-70.71 51,-62.11"/>
<polygon fill="black" stroke="black" points="54.5,-62.1 51,-52.1 47.5,-62.1 54.5,-62.1"/>
<g id="a_edge1&#45;headlabel"><a xlink:href="dir_000007_000009.html" target="_top" xlink:title="10">
<text text-anchor="middle" x="57.34" y="-63.2" font-family="Helvetica,sans-Serif" font-size="10.00">10</text>
</a>
</g>
</g>
</g>
</svg>
