<?xml version="1.0" encoding="UTF-8" standalone="no"?>
<!DOCTYPE svg PUBLIC "-//W3C//DTD SVG 1.1//EN"
 "http://www.w3.org/Graphics/SVG/1.1/DTD/svg11.dtd">
<!-- Generated by graphviz version 2.43.0 (0)
 -->
<!-- Title: fastcdr Pages: 1 -->
<svg width="274pt" height="255pt"
 viewBox="0.00 0.00 274.00 255.00" xmlns="http://www.w3.org/2000/svg" xmlns:xlink="http://www.w3.org/1999/xlink">
<g id="graph0" class="graph" transform="scale(1 1) rotate(0) translate(4 251)">
<title>fastcdr</title>
<polygon fill="white" stroke="transparent" points="-4,4 -4,-251 270,-251 270,4 -4,4"/>
<g id="clust1" class="cluster">
<title>clusterdir_d805478b2ecc6c9760404054b332374f</title>
<g id="a_clust1"><a xlink:href="dir_d805478b2ecc6c9760404054b332374f.html" target="_top" xlink:title="include">
<polygon fill="#ddddee" stroke="black" points="8,-8 8,-239 258,-239 258,-8 8,-8"/>
<text text-anchor="middle" x="133" y="-227" font-family="Helvetica,sans-Serif" font-size="10.00">include</text>
</a>
</g>
</g>
<g id="clust2" class="cluster">
<title>clusterdir_c99c0b03fd74119f7b646f8e15bc5edd</title>
<g id="a_clust2"><a xlink:href="dir_c99c0b03fd74119f7b646f8e15bc5edd.html" target="_top">
<polygon fill="#eeeeff" stroke="black" points="16,-16 16,-212 250,-212 250,-16 16,-16"/>
</a>
</g>
</g>
<!-- dir_c99c0b03fd74119f7b646f8e15bc5edd -->
<g id="node1" class="node">
<title>dir_c99c0b03fd74119f7b646f8e15bc5edd</title>
<text text-anchor="middle" x="157" y="-183.5" font-family="Helvetica,sans-Serif" font-size="10.00">fastcdr</text>
</g>
<!-- dir_5169c73fb7e068e89a1923a0e9bc55d5 -->
<g id="node2" class="node">
<title>dir_5169c73fb7e068e89a1923a0e9bc55d5</title>
<g id="a_node2"><a xlink:href="dir_5169c73fb7e068e89a1923a0e9bc55d5.html" target="_top" xlink:title="cdr">
<polygon fill="white" stroke="black" points="78,-132 24,-132 24,-96 78,-96 78,-132"/>
<text text-anchor="middle" x="51" y="-111.5" font-family="Helvetica,sans-Serif" font-size="10.00">cdr</text>
</a>
</g>
</g>
<!-- dir_c99c0b03fd74119f7b646f8e15bc5edd&#45;&gt;dir_5169c73fb7e068e89a1923a0e9bc55d5 -->
<g id="edge4" class="edge">
<title>dir_c99c0b03fd74119f7b646f8e15bc5edd&#45;&gt;dir_5169c73fb7e068e89a1923a0e9bc55d5</title>
<path fill="none" stroke="black" d="M131.07,-167.88C117.34,-158.81 100.29,-147.55 85.46,-137.76"/>
<polygon fill="black" stroke="black" points="87.3,-134.78 77.03,-132.19 83.45,-140.62 87.3,-134.78"/>
<g id="a_edge4&#45;headlabel"><a xlink:href="dir_000010_000020.html" target="_top" xlink:title="2">
<text text-anchor="middle" x="91.87" y="-131.89" font-family="Helvetica,sans-Serif" font-size="10.00">2</text>
</a>
</g>
</g>
<!-- dir_1ffd6b10dc6ffe9f297a67d31d4fc02d -->
<g id="node4" class="node">
<title>dir_1ffd6b10dc6ffe9f297a67d31d4fc02d</title>
<g id="a_node4"><a xlink:href="dir_1ffd6b10dc6ffe9f297a67d31d4fc02d.html" target="_top" xlink:title="detail">
<polygon fill="white" stroke="black" points="150,-132 96,-132 96,-96 150,-96 150,-132"/>
<text text-anchor="middle" x="123" y="-111.5" font-family="Helvetica,sans-Serif" font-size="10.00">detail</text>
</a>
</g>
</g>
<!-- dir_c99c0b03fd74119f7b646f8e15bc5edd&#45;&gt;dir_1ffd6b10dc6ffe9f297a67d31d4fc02d -->
<g id="edge2" class="edge">
<title>dir_c99c0b03fd74119f7b646f8e15bc5edd&#45;&gt;dir_1ffd6b10dc6ffe9f297a67d31d4fc02d</title>
<path fill="none" stroke="black" d="M148.6,-167.7C144.73,-159.73 140.05,-150.1 135.76,-141.26"/>
<polygon fill="black" stroke="black" points="138.83,-139.57 131.31,-132.1 132.53,-142.63 138.83,-139.57"/>
<g id="a_edge2&#45;headlabel"><a xlink:href="dir_000010_000015.html" target="_top" xlink:title="2">
<text text-anchor="middle" x="142.95" y="-139.06" font-family="Helvetica,sans-Serif" font-size="10.00">2</text>
</a>
</g>
</g>
<!-- dir_52f0917670858f6167180be9c0e2d1d6 -->
<g id="node5" class="node">
<title>dir_52f0917670858f6167180be9c0e2d1d6</title>
<g id="a_node5"><a xlink:href="dir_52f0917670858f6167180be9c0e2d1d6.html" target="_top" xlink:title="exceptions">
<polygon fill="white" stroke="black" points="223,-60 153,-60 153,-24 223,-24 223,-60"/>
<text text-anchor="middle" x="188" y="-39.5" font-family="Helvetica,sans-Serif" font-size="10.00">exceptions</text>
</a>
</g>
</g>
<!-- dir_c99c0b03fd74119f7b646f8e15bc5edd&#45;&gt;dir_52f0917670858f6167180be9c0e2d1d6 -->
<g id="edge5" class="edge">
<title>dir_c99c0b03fd74119f7b646f8e15bc5edd&#45;&gt;dir_52f0917670858f6167180be9c0e2d1d6</title>
<path fill="none" stroke="black" d="M160.74,-167.87C166.05,-143.56 175.81,-98.82 182.1,-70.01"/>
<polygon fill="black" stroke="black" points="185.53,-70.71 184.25,-60.19 178.7,-69.21 185.53,-70.71"/>
<g id="a_edge5&#45;headlabel"><a xlink:href="dir_000010_000011.html" target="_top" xlink:title="8">
<text text-anchor="middle" x="187.54" y="-72.32" font-family="Helvetica,sans-Serif" font-size="10.00">8</text>
</a>
</g>
</g>
<!-- dir_369dabe123915881fb1f6d3ad3cc5431 -->
<g id="node6" class="node">
<title>dir_369dabe123915881fb1f6d3ad3cc5431</title>
<g id="a_node6"><a xlink:href="dir_369dabe123915881fb1f6d3ad3cc5431.html" target="_top" xlink:title="xcdr">
<polygon fill="white" stroke="red" points="242,-132 188,-132 188,-96 242,-96 242,-132"/>
<text text-anchor="middle" x="215" y="-111.5" font-family="Helvetica,sans-Serif" font-size="10.00">xcdr</text>
</a>
</g>
</g>
<!-- dir_c99c0b03fd74119f7b646f8e15bc5edd&#45;&gt;dir_369dabe123915881fb1f6d3ad3cc5431 -->
<g id="edge3" class="edge">
<title>dir_c99c0b03fd74119f7b646f8e15bc5edd&#45;&gt;dir_369dabe123915881fb1f6d3ad3cc5431</title>
<path fill="none" stroke="black" d="M171.34,-167.7C178.29,-159.3 186.77,-149.07 194.4,-139.86"/>
<polygon fill="black" stroke="black" points="197.14,-142.04 200.83,-132.1 191.75,-137.57 197.14,-142.04"/>
<g id="a_edge3&#45;headlabel"><a xlink:href="dir_000010_000019.html" target="_top" xlink:title="7">
<text text-anchor="middle" x="197.04" y="-144.12" font-family="Helvetica,sans-Serif" font-size="10.00">7</text>
</a>
</g>
</g>
<!-- dir_fc91381dcd15b14e3c6952fae4a8fd27 -->
<g id="node3" class="node">
<title>dir_fc91381dcd15b14e3c6952fae4a8fd27</title>
<g id="a_node3"><a xlink:href="dir_fc91381dcd15b14e3c6952fae4a8fd27.html" target="_top" xlink:title="config">
<polygon fill="white" stroke="black" points="101,-204 47,-204 47,-168 101,-168 101,-204"/>
<text text-anchor="middle" x="74" y="-183.5" font-family="Helvetica,sans-Serif" font-size="10.00">config</text>
</a>
</g>
</g>
<!-- dir_369dabe123915881fb1f6d3ad3cc5431&#45;&gt;dir_52f0917670858f6167180be9c0e2d1d6 -->
<g id="edge1" class="edge">
<title>dir_369dabe123915881fb1f6d3ad3cc5431&#45;&gt;dir_52f0917670858f6167180be9c0e2d1d6</title>
<path fill="none" stroke="black" d="M208.33,-95.7C205.29,-87.81 201.62,-78.3 198.24,-69.55"/>
<polygon fill="black" stroke="black" points="201.46,-68.17 194.6,-60.1 194.93,-70.69 201.46,-68.17"/>
<g id="a_edge1&#45;headlabel"><a xlink:href="dir_000019_000011.html" target="_top" xlink:title="2">
<text text-anchor="middle" x="205.4" y="-68.01" font-family="Helvetica,sans-Serif" font-size="10.00">2</text>
</a>
</g>
</g>
</g>
</svg>
