<?xml version="1.0" encoding="UTF-8" standalone="no"?>
<!DOCTYPE svg PUBLIC "-//W3C//DTD SVG 1.1//EN"
 "http://www.w3.org/Graphics/SVG/1.1/DTD/svg11.dtd">
<!-- Generated by graphviz version 2.43.0 (0)
 -->
<!-- Title: exceptions Pages: 1 -->
<svg width="110pt" height="151pt"
 viewBox="0.00 0.00 110.00 151.00" xmlns="http://www.w3.org/2000/svg" xmlns:xlink="http://www.w3.org/1999/xlink">
<g id="graph0" class="graph" transform="scale(1 1) rotate(0) translate(4 147)">
<title>exceptions</title>
<polygon fill="white" stroke="transparent" points="-4,4 -4,-147 106,-147 106,4 -4,4"/>
<g id="clust1" class="cluster">
<title>clusterdir_64134a0420e0843a78bf8176f37d0c5a</title>
<g id="a_clust1"><a xlink:href="dir_64134a0420e0843a78bf8176f37d0c5a.html" target="_top" xlink:title="cpp">
<polygon fill="#ddddee" stroke="black" points="8,-64 8,-135 94,-135 94,-64 8,-64"/>
<text text-anchor="middle" x="51" y="-123" font-family="Helvetica,sans-Serif" font-size="10.00">cpp</text>
</a>
</g>
</g>
<!-- dir_3d4ee7b19511a4a15d5ad397c40c87b9 -->
<g id="node1" class="node">
<title>dir_3d4ee7b19511a4a15d5ad397c40c87b9</title>
<g id="a_node1"><a xlink:href="dir_3d4ee7b19511a4a15d5ad397c40c87b9.html" target="_top" xlink:title="exceptions">
<polygon fill="#eeeeff" stroke="black" points="86,-108 16,-108 16,-72 86,-72 86,-108"/>
<text text-anchor="middle" x="51" y="-87.5" font-family="Helvetica,sans-Serif" font-size="10.00">exceptions</text>
</a>
</g>
</g>
<!-- dir_d805478b2ecc6c9760404054b332374f -->
<g id="node2" class="node">
<title>dir_d805478b2ecc6c9760404054b332374f</title>
<g id="a_node2"><a xlink:href="dir_d805478b2ecc6c9760404054b332374f.html" target="_top" xlink:title="include">
<polygon fill="white" stroke="red" points="78,-36 24,-36 24,0 78,0 78,-36"/>
<text text-anchor="middle" x="51" y="-15.5" font-family="Helvetica,sans-Serif" font-size="10.00">include</text>
</a>
</g>
</g>
<!-- dir_3d4ee7b19511a4a15d5ad397c40c87b9&#45;&gt;dir_d805478b2ecc6c9760404054b332374f -->
<g id="edge1" class="edge">
<title>dir_3d4ee7b19511a4a15d5ad397c40c87b9&#45;&gt;dir_d805478b2ecc6c9760404054b332374f</title>
<path fill="none" stroke="black" d="M51,-71.7C51,-63.98 51,-54.71 51,-46.11"/>
<polygon fill="black" stroke="black" points="54.5,-46.1 51,-36.1 47.5,-46.1 54.5,-46.1"/>
<g id="a_edge1&#45;headlabel"><a xlink:href="dir_000008_000009.html" target="_top" xlink:title="5">
<text text-anchor="middle" x="57.34" y="-47.2" font-family="Helvetica,sans-Serif" font-size="10.00">5</text>
</a>
</g>
</g>
</g>
</svg>
