<?xml version="1.0" encoding="UTF-8" standalone="no"?>
<!DOCTYPE svg PUBLIC "-//W3C//DTD SVG 1.1//EN"
 "http://www.w3.org/Graphics/SVG/1.1/DTD/svg11.dtd">
<!-- Generated by graphviz version 2.43.0 (0)
 -->
<!-- Title: Graphical Class Hierarchy Pages: 1 -->
<svg width="440pt" height="142pt"
 viewBox="0.00 0.00 440.00 142.00" xmlns="http://www.w3.org/2000/svg" xmlns:xlink="http://www.w3.org/1999/xlink">
<g id="graph0" class="graph" transform="scale(1 1) rotate(0) translate(4 138)">
<title>Graphical Class Hierarchy</title>
<polygon fill="white" stroke="transparent" points="-4,4 -4,-138 436,-138 436,4 -4,4"/>
<!-- Node0 -->
<g id="node1" class="node">
<title>Node0</title>
<g id="a_node1"><a xlink:href="structmcap_1_1IReadable.html" target="_top" xlink:title="An abstract interface for reading MCAP data.">
<polygon fill="white" stroke="black" points="0,-76.5 0,-95.5 98,-95.5 98,-76.5 0,-76.5"/>
<text text-anchor="middle" x="49" y="-83.5" font-family="Helvetica,sans-Serif" font-size="10.00">mcap::IReadable</text>
</a>
</g>
</g>
<!-- Node1 -->
<g id="node2" class="node">
<title>Node1</title>
<g id="a_node2"><a xlink:href="classmcap_1_1FileReader.html" target="_top" xlink:title="IReadable implementation wrapping a FILE* pointer created by fopen() and a read buffer.">
<polygon fill="white" stroke="black" points="157.5,-114.5 157.5,-133.5 258.5,-133.5 258.5,-114.5 157.5,-114.5"/>
<text text-anchor="middle" x="208" y="-121.5" font-family="Helvetica,sans-Serif" font-size="10.00">mcap::FileReader</text>
</a>
</g>
</g>
<!-- Node0&#45;&gt;Node1 -->
<g id="edge1" class="edge">
<title>Node0&#45;&gt;Node1</title>
<path fill="none" stroke="midnightblue" d="M99.45,-97.97C121.45,-103.29 146.99,-109.48 167.67,-114.48"/>
<polygon fill="midnightblue" stroke="midnightblue" points="100.16,-94.54 89.62,-95.59 98.51,-101.34 100.16,-94.54"/>
</g>
<!-- Node2 -->
<g id="node3" class="node">
<title>Node2</title>
<g id="a_node3"><a xlink:href="classmcap_1_1FileStreamReader.html" target="_top" xlink:title="IReadable implementation wrapping a std::ifstream input file stream.">
<polygon fill="white" stroke="black" points="140,-76.5 140,-95.5 276,-95.5 276,-76.5 140,-76.5"/>
<text text-anchor="middle" x="208" y="-83.5" font-family="Helvetica,sans-Serif" font-size="10.00">mcap::FileStreamReader</text>
</a>
</g>
</g>
<!-- Node0&#45;&gt;Node2 -->
<g id="edge2" class="edge">
<title>Node0&#45;&gt;Node2</title>
<path fill="none" stroke="midnightblue" d="M108.4,-86C118.61,-86 129.3,-86 139.72,-86"/>
<polygon fill="midnightblue" stroke="midnightblue" points="108.39,-82.5 98.39,-86 108.39,-89.5 108.39,-82.5"/>
</g>
<!-- Node3 -->
<g id="node4" class="node">
<title>Node3</title>
<g id="a_node4"><a xlink:href="classmcap_1_1ICompressedReader.html" target="_top" xlink:title="An abstract interface for compressed readers.">
<polygon fill="white" stroke="black" points="134,-38.5 134,-57.5 282,-57.5 282,-38.5 134,-38.5"/>
<text text-anchor="middle" x="208" y="-45.5" font-family="Helvetica,sans-Serif" font-size="10.00">mcap::ICompressedReader</text>
</a>
</g>
</g>
<!-- Node0&#45;&gt;Node3 -->
<g id="edge3" class="edge">
<title>Node0&#45;&gt;Node3</title>
<path fill="none" stroke="midnightblue" d="M99.45,-74.03C121.45,-68.71 146.99,-62.52 167.67,-57.52"/>
<polygon fill="midnightblue" stroke="midnightblue" points="98.51,-70.66 89.62,-76.41 100.16,-77.46 98.51,-70.66"/>
</g>
<!-- Node4 -->
<g id="node5" class="node">
<title>Node4</title>
<g id="a_node5"><a xlink:href="classmcap_1_1BufferReader.html" target="_top" xlink:title="A &quot;null&quot; compressed reader that directly passes through uncompressed data. No internal buffers are al...">
<polygon fill="white" stroke="black" points="318,-76.5 318,-95.5 432,-95.5 432,-76.5 318,-76.5"/>
<text text-anchor="middle" x="375" y="-83.5" font-family="Helvetica,sans-Serif" font-size="10.00">mcap::BufferReader</text>
</a>
</g>
</g>
<!-- Node3&#45;&gt;Node4 -->
<g id="edge4" class="edge">
<title>Node3&#45;&gt;Node4</title>
<path fill="none" stroke="midnightblue" d="M260.65,-59.9C283.85,-65.24 310.84,-71.45 332.66,-76.48"/>
<polygon fill="midnightblue" stroke="midnightblue" points="261.17,-56.42 250.64,-57.59 259.6,-63.24 261.17,-56.42"/>
</g>
<!-- Node5 -->
<g id="node6" class="node">
<title>Node5</title>
<g id="a_node6"><a xlink:href="classmcap_1_1LZ4Reader.html" target="_top" xlink:title="ICompressedReader implementation that decompresses LZ4 (https://lz4.github.io/lz4/) data.">
<polygon fill="white" stroke="black" points="324,-38.5 324,-57.5 426,-57.5 426,-38.5 324,-38.5"/>
<text text-anchor="middle" x="375" y="-45.5" font-family="Helvetica,sans-Serif" font-size="10.00">mcap::LZ4Reader</text>
</a>
</g>
</g>
<!-- Node3&#45;&gt;Node5 -->
<g id="edge5" class="edge">
<title>Node3&#45;&gt;Node5</title>
<path fill="none" stroke="midnightblue" d="M292.5,-48C303.13,-48 313.73,-48 323.6,-48"/>
<polygon fill="midnightblue" stroke="midnightblue" points="292.33,-44.5 282.33,-48 292.33,-51.5 292.33,-44.5"/>
</g>
<!-- Node6 -->
<g id="node7" class="node">
<title>Node6</title>
<g id="a_node7"><a xlink:href="classmcap_1_1ZStdReader.html" target="_top" xlink:title="ICompressedReader implementation that decompresses Zstandard (https://facebook.github....">
<polygon fill="white" stroke="black" points="321.5,-0.5 321.5,-19.5 428.5,-19.5 428.5,-0.5 321.5,-0.5"/>
<text text-anchor="middle" x="375" y="-7.5" font-family="Helvetica,sans-Serif" font-size="10.00">mcap::ZStdReader</text>
</a>
</g>
</g>
<!-- Node3&#45;&gt;Node6 -->
<g id="edge6" class="edge">
<title>Node3&#45;&gt;Node6</title>
<path fill="none" stroke="midnightblue" d="M260.65,-36.1C283.85,-30.76 310.84,-24.55 332.66,-19.52"/>
<polygon fill="midnightblue" stroke="midnightblue" points="259.6,-32.76 250.64,-38.41 261.17,-39.58 259.6,-32.76"/>
</g>
</g>
</svg>
