<?xml version="1.0" encoding="UTF-8" standalone="no"?>
<!DOCTYPE svg PUBLIC "-//W3C//DTD SVG 1.1//EN"
 "http://www.w3.org/Graphics/SVG/1.1/DTD/svg11.dtd">
<!-- Generated by graphviz version 2.43.0 (0)
 -->
<!-- Title: Graphical Class Hierarchy Pages: 1 -->
<svg width="399pt" height="104pt"
 viewBox="0.00 0.00 399.00 104.00" xmlns="http://www.w3.org/2000/svg" xmlns:xlink="http://www.w3.org/1999/xlink">
<g id="graph0" class="graph" transform="scale(1 1) rotate(0) translate(4 100)">
<title>Graphical Class Hierarchy</title>
<polygon fill="white" stroke="transparent" points="-4,4 -4,-100 395,-100 395,4 -4,4"/>
<!-- Node0 -->
<g id="node1" class="node">
<title>Node0</title>
<g id="a_node1"><a xlink:href="classmcap_1_1IWritable.html" target="_top" xlink:title="An abstract interface for writing MCAP data.">
<polygon fill="white" stroke="black" points="0,-38.5 0,-57.5 94,-57.5 94,-38.5 0,-38.5"/>
<text text-anchor="middle" x="47" y="-45.5" font-family="Helvetica,sans-Serif" font-size="10.00">mcap::IWritable</text>
</a>
</g>
</g>
<!-- Node1 -->
<g id="node2" class="node">
<title>Node1</title>
<g id="a_node2"><a xlink:href="classmcap_1_1FileWriter.html" target="_top" xlink:title="Implements the IWritable interface used by McapWriter by wrapping a FILE* pointer created by fopen().">
<polygon fill="white" stroke="black" points="139.5,-76.5 139.5,-95.5 235.5,-95.5 235.5,-76.5 139.5,-76.5"/>
<text text-anchor="middle" x="187.5" y="-83.5" font-family="Helvetica,sans-Serif" font-size="10.00">mcap::FileWriter</text>
</a>
</g>
</g>
<!-- Node0&#45;&gt;Node1 -->
<g id="edge1" class="edge">
<title>Node0&#45;&gt;Node1</title>
<path fill="none" stroke="midnightblue" d="M92.63,-60.25C111.72,-65.48 133.68,-71.51 151.56,-76.41"/>
<polygon fill="midnightblue" stroke="midnightblue" points="93.52,-56.86 82.95,-57.59 91.67,-63.61 93.52,-56.86"/>
</g>
<!-- Node2 -->
<g id="node3" class="node">
<title>Node2</title>
<g id="a_node3"><a xlink:href="classmcap_1_1IChunkWriter.html" target="_top" xlink:title="An abstract interface for writing Chunk data. Chunk data is buffered in memory and written to disk as...">
<polygon fill="white" stroke="black" points="131,-38.5 131,-57.5 244,-57.5 244,-38.5 131,-38.5"/>
<text text-anchor="middle" x="187.5" y="-45.5" font-family="Helvetica,sans-Serif" font-size="10.00">mcap::IChunkWriter</text>
</a>
</g>
</g>
<!-- Node0&#45;&gt;Node2 -->
<g id="edge2" class="edge">
<title>Node0&#45;&gt;Node2</title>
<path fill="none" stroke="midnightblue" d="M104.28,-48C113.08,-48 122.18,-48 130.96,-48"/>
<polygon fill="midnightblue" stroke="midnightblue" points="104.12,-44.5 94.12,-48 104.12,-51.5 104.12,-44.5"/>
</g>
<!-- Node6 -->
<g id="node7" class="node">
<title>Node6</title>
<g id="a_node7"><a xlink:href="classmcap_1_1StreamWriter.html" target="_top" xlink:title="Implements the IWritable interface used by McapWriter by wrapping a std::ostream stream.">
<polygon fill="white" stroke="black" points="130,-0.5 130,-19.5 245,-19.5 245,-0.5 130,-0.5"/>
<text text-anchor="middle" x="187.5" y="-7.5" font-family="Helvetica,sans-Serif" font-size="10.00">mcap::StreamWriter</text>
</a>
</g>
</g>
<!-- Node0&#45;&gt;Node6 -->
<g id="edge6" class="edge">
<title>Node0&#45;&gt;Node6</title>
<path fill="none" stroke="midnightblue" d="M92.63,-35.75C111.72,-30.52 133.68,-24.49 151.56,-19.59"/>
<polygon fill="midnightblue" stroke="midnightblue" points="91.67,-32.39 82.95,-38.41 93.52,-39.14 91.67,-32.39"/>
</g>
<!-- Node3 -->
<g id="node4" class="node">
<title>Node3</title>
<g id="a_node4"><a xlink:href="classmcap_1_1BufferWriter.html" target="_top" xlink:title="An in&#45;memory IChunkWriter implementation backed by a growable buffer.">
<polygon fill="white" stroke="black" points="281,-76.5 281,-95.5 391,-95.5 391,-76.5 281,-76.5"/>
<text text-anchor="middle" x="336" y="-83.5" font-family="Helvetica,sans-Serif" font-size="10.00">mcap::BufferWriter</text>
</a>
</g>
</g>
<!-- Node2&#45;&gt;Node3 -->
<g id="edge3" class="edge">
<title>Node2&#45;&gt;Node3</title>
<path fill="none" stroke="midnightblue" d="M235.2,-60.11C255.6,-65.4 279.18,-71.52 298.3,-76.48"/>
<polygon fill="midnightblue" stroke="midnightblue" points="236.03,-56.71 225.47,-57.59 234.27,-63.49 236.03,-56.71"/>
</g>
<!-- Node4 -->
<g id="node5" class="node">
<title>Node4</title>
<g id="a_node5"><a xlink:href="classmcap_1_1LZ4Writer.html" target="_top" xlink:title="An in&#45;memory IChunkWriter implementation that holds data in a temporary buffer before flushing to an ...">
<polygon fill="white" stroke="black" points="287,-38.5 287,-57.5 385,-57.5 385,-38.5 287,-38.5"/>
<text text-anchor="middle" x="336" y="-45.5" font-family="Helvetica,sans-Serif" font-size="10.00">mcap::LZ4Writer</text>
</a>
</g>
</g>
<!-- Node2&#45;&gt;Node4 -->
<g id="edge4" class="edge">
<title>Node2&#45;&gt;Node4</title>
<path fill="none" stroke="midnightblue" d="M254.53,-48C265.3,-48 276.29,-48 286.53,-48"/>
<polygon fill="midnightblue" stroke="midnightblue" points="254.3,-44.5 244.3,-48 254.3,-51.5 254.3,-44.5"/>
</g>
<!-- Node5 -->
<g id="node6" class="node">
<title>Node5</title>
<g id="a_node6"><a xlink:href="classmcap_1_1ZStdWriter.html" target="_top" xlink:title="An in&#45;memory IChunkWriter implementation that holds data in a temporary buffer before flushing to an ...">
<polygon fill="white" stroke="black" points="285,-0.5 285,-19.5 387,-19.5 387,-0.5 285,-0.5"/>
<text text-anchor="middle" x="336" y="-7.5" font-family="Helvetica,sans-Serif" font-size="10.00">mcap::ZStdWriter</text>
</a>
</g>
</g>
<!-- Node2&#45;&gt;Node5 -->
<g id="edge5" class="edge">
<title>Node2&#45;&gt;Node5</title>
<path fill="none" stroke="midnightblue" d="M235.2,-35.89C255.6,-30.6 279.18,-24.48 298.3,-19.52"/>
<polygon fill="midnightblue" stroke="midnightblue" points="234.27,-32.51 225.47,-38.41 236.03,-39.29 234.27,-32.51"/>
</g>
</g>
</svg>
