<?xml version="1.0" encoding="UTF-8" standalone="no"?>
<!DOCTYPE svg PUBLIC "-//W3C//DTD SVG 1.1//EN"
 "http://www.w3.org/Graphics/SVG/1.1/DTD/svg11.dtd">
<!-- Generated by graphviz version 2.43.0 (0)
 -->
<!-- Title: Graphical Class Hierarchy Pages: 1 -->
<svg width="464pt" height="220pt"
 viewBox="0.00 0.00 464.00 220.00" xmlns="http://www.w3.org/2000/svg" xmlns:xlink="http://www.w3.org/1999/xlink">
<g id="graph0" class="graph" transform="scale(1 1) rotate(0) translate(4 216)">
<title>Graphical Class Hierarchy</title>
<polygon fill="white" stroke="transparent" points="-4,4 -4,-216 460,-216 460,4 -4,4"/>
<!-- Node0 -->
<g id="node1" class="node">
<title>Node0</title>
<g id="a_node1"><a target="_parent" xlink:href="http://en.cppreference.com/w/cpp/error/exception.html" xlink:title=" ">
<polygon fill="white" stroke="black" points="0,-98.5 0,-117.5 86,-117.5 86,-98.5 0,-98.5"/>
<text text-anchor="middle" x="43" y="-105.5" font-family="Helvetica,sans-Serif" font-size="10.00">std::exception</text>
</a>
</g>
</g>
<!-- Node1 -->
<g id="node2" class="node">
<title>Node1</title>
<g id="a_node2"><a xlink:href="classeprosima_1_1fastcdr_1_1exception_1_1Exception.html" target="_top" xlink:title="This abstract class is used to create exceptions.">
<polygon fill="white" stroke="black" points="122,-93 122,-123 241,-123 241,-93 122,-93"/>
<text text-anchor="start" x="130" y="-111" font-family="Helvetica,sans-Serif" font-size="10.00">eprosima::fastcdr::</text>
<text text-anchor="middle" x="181.5" y="-100" font-family="Helvetica,sans-Serif" font-size="10.00">exception::Exception</text>
</a>
</g>
</g>
<!-- Node0&#45;&gt;Node1 -->
<g id="edge1" class="edge">
<title>Node0&#45;&gt;Node1</title>
<path fill="none" stroke="midnightblue" d="M96.1,-108C104.49,-108 113.22,-108 121.76,-108"/>
<polygon fill="midnightblue" stroke="midnightblue" points="96.07,-104.5 86.07,-108 96.07,-111.5 96.07,-104.5"/>
</g>
<!-- Node2 -->
<g id="node3" class="node">
<title>Node2</title>
<g id="a_node3"><a xlink:href="classeprosima_1_1fastcdr_1_1exception_1_1BadOptionalAccessException.html" target="_top" xlink:title="This class is thrown as an exception when accessing the value of a null optional.">
<polygon fill="white" stroke="black" points="284.5,-170.5 284.5,-211.5 448.5,-211.5 448.5,-170.5 284.5,-170.5"/>
<text text-anchor="start" x="292.5" y="-199.5" font-family="Helvetica,sans-Serif" font-size="10.00">eprosima::fastcdr::</text>
<text text-anchor="start" x="292.5" y="-188.5" font-family="Helvetica,sans-Serif" font-size="10.00">exception::BadOptionalAccess</text>
<text text-anchor="middle" x="366.5" y="-177.5" font-family="Helvetica,sans-Serif" font-size="10.00">Exception</text>
</a>
</g>
</g>
<!-- Node1&#45;&gt;Node2 -->
<g id="edge2" class="edge">
<title>Node1&#45;&gt;Node2</title>
<path fill="none" stroke="midnightblue" d="M215.57,-128.53C233.36,-139.06 255.93,-151.62 277,-161 284.41,-164.3 292.3,-167.46 300.2,-170.4"/>
<polygon fill="midnightblue" stroke="midnightblue" points="217.1,-125.37 206.73,-123.23 213.51,-131.37 217.1,-125.37"/>
</g>
<!-- Node3 -->
<g id="node4" class="node">
<title>Node3</title>
<g id="a_node4"><a xlink:href="classeprosima_1_1fastcdr_1_1exception_1_1BadParamException.html" target="_top" xlink:title="This class is thrown as an exception when an invalid parameter is being serialized.">
<polygon fill="white" stroke="black" points="282,-121 282,-151 451,-151 451,-121 282,-121"/>
<text text-anchor="start" x="290" y="-139" font-family="Helvetica,sans-Serif" font-size="10.00">eprosima::fastcdr::</text>
<text text-anchor="middle" x="366.5" y="-128" font-family="Helvetica,sans-Serif" font-size="10.00">exception::BadParamException</text>
</a>
</g>
</g>
<!-- Node1&#45;&gt;Node3 -->
<g id="edge3" class="edge">
<title>Node1&#45;&gt;Node3</title>
<path fill="none" stroke="midnightblue" d="M251.05,-118.49C261.09,-120.03 271.53,-121.62 281.84,-123.2"/>
<polygon fill="midnightblue" stroke="midnightblue" points="251.57,-115.03 241.16,-116.97 250.51,-121.95 251.57,-115.03"/>
</g>
<!-- Node4 -->
<g id="node5" class="node">
<title>Node4</title>
<g id="a_node5"><a xlink:href="classeprosima_1_1fastcdr_1_1exception_1_1LockedExternalAccessException.html" target="_top" xlink:title="This class is thrown as an exception when accessing to set the value of a locked external.">
<polygon fill="white" stroke="black" points="277,-60.5 277,-101.5 456,-101.5 456,-60.5 277,-60.5"/>
<text text-anchor="start" x="285" y="-89.5" font-family="Helvetica,sans-Serif" font-size="10.00">eprosima::fastcdr::</text>
<text text-anchor="start" x="285" y="-78.5" font-family="Helvetica,sans-Serif" font-size="10.00">exception::LockedExternalAccess</text>
<text text-anchor="middle" x="366.5" y="-67.5" font-family="Helvetica,sans-Serif" font-size="10.00">Exception</text>
</a>
</g>
</g>
<!-- Node1&#45;&gt;Node4 -->
<g id="edge4" class="edge">
<title>Node1&#45;&gt;Node4</title>
<path fill="none" stroke="midnightblue" d="M251.22,-97.86C259.59,-96.63 268.23,-95.35 276.84,-94.08"/>
<polygon fill="midnightblue" stroke="midnightblue" points="250.54,-94.42 241.16,-99.35 251.56,-101.35 250.54,-94.42"/>
</g>
<!-- Node5 -->
<g id="node6" class="node">
<title>Node5</title>
<g id="a_node6"><a xlink:href="classeprosima_1_1fastcdr_1_1exception_1_1NotEnoughMemoryException.html" target="_top" xlink:title="This class is thrown as an exception when the buffer&#39;s internal memory reachs its size limit.">
<polygon fill="white" stroke="black" points="284.5,-0.5 284.5,-41.5 448.5,-41.5 448.5,-0.5 284.5,-0.5"/>
<text text-anchor="start" x="292.5" y="-29.5" font-family="Helvetica,sans-Serif" font-size="10.00">eprosima::fastcdr::</text>
<text text-anchor="start" x="292.5" y="-18.5" font-family="Helvetica,sans-Serif" font-size="10.00">exception::NotEnoughMemory</text>
<text text-anchor="middle" x="366.5" y="-7.5" font-family="Helvetica,sans-Serif" font-size="10.00">Exception</text>
</a>
</g>
</g>
<!-- Node1&#45;&gt;Node5 -->
<g id="edge5" class="edge">
<title>Node1&#45;&gt;Node5</title>
<path fill="none" stroke="midnightblue" d="M213.05,-87.26C231.12,-75.59 254.75,-61.33 277,-51 284.21,-47.65 291.9,-44.49 299.63,-41.56"/>
<polygon fill="midnightblue" stroke="midnightblue" points="211.11,-84.35 204.66,-92.75 214.94,-90.2 211.11,-84.35"/>
</g>
</g>
</svg>
