<?xml version="1.0" encoding="UTF-8" standalone="no"?>
<!DOCTYPE svg PUBLIC "-//W3C//DTD SVG 1.1//EN"
 "http://www.w3.org/Graphics/SVG/1.1/DTD/svg11.dtd">
<!-- Generated by graphviz version 2.43.0 (0)
 -->
<!-- Title: graphname Pages: 1 -->
<svg width="742pt" height="246pt"
 viewBox="0.00 0.00 741.89 246.00" xmlns="http://www.w3.org/2000/svg" xmlns:xlink="http://www.w3.org/1999/xlink">
<g id="graph0" class="graph" transform="scale(1 1) rotate(0) translate(4 242)">
<title>graphname</title>
<polygon fill="white" stroke="transparent" points="-4,4 -4,-242 737.89,-242 737.89,4 -4,4"/>
<g id="clust1" class="cluster">
<title>cluster_0</title>
<polygon fill="none" stroke="black" points="8,-80 8,-230 270,-230 270,-80 8,-80"/>
<text text-anchor="middle" x="139" y="-214.8" font-family="Times,serif" font-size="14.00">intrometry</text>
</g>
<g id="clust2" class="cluster">
<title>cluster_1</title>
<polygon fill="none" stroke="black" points="278,-8 278,-155 534,-155 534,-8 278,-8"/>
<text text-anchor="middle" x="406" y="-139.8" font-family="Times,serif" font-size="14.00">ariles</text>
</g>
<!-- intrometry_frontend -->
<g id="node1" class="node">
<title>intrometry_frontend</title>
<g id="a_node1"><a xlink:href="../intrometry_frontend/index.html" xlink:title="intrometry_frontend">
<ellipse fill="none" stroke="black" cx="148" cy="-106" rx="105.08" ry="18"/>
<text text-anchor="middle" x="148" y="-102.3" font-family="Times,serif" font-size="14.00">intrometry_frontend</text>
</a>
</g>
</g>
<!-- ariles2_core_ws -->
<g id="node3" class="node">
<title>ariles2_core_ws</title>
<g id="a_node3"><a xlink:href="../ariles2_core_ws/index.html" xlink:title="ariles2_core_ws">
<ellipse fill="none" stroke="black" cx="388" cy="-34" rx="83.69" ry="18"/>
<text text-anchor="middle" x="388" y="-30.3" font-family="Times,serif" font-size="14.00">ariles2_core_ws</text>
</a>
</g>
</g>
<!-- intrometry_frontend&#45;&gt;ariles2_core_ws -->
<g id="edge4" class="edge">
<title>intrometry_frontend&#45;&gt;ariles2_core_ws</title>
<path fill="none" stroke="#0000ff" d="M198.62,-89.19C237.26,-77.92 290.41,-62.42 330.52,-50.72"/>
<path fill="none" stroke="#ff0000" d="M199.18,-91.11C237.82,-79.84 290.97,-64.34 331.08,-52.64"/>
<polygon fill="#0000ff" stroke="#0000ff" points="331.82,-55.03 340.44,-48.87 329.86,-48.31 331.82,-55.03"/>
</g>
<!-- intrometry_pjmsg_mcap -->
<g id="node2" class="node">
<title>intrometry_pjmsg_mcap</title>
<g id="a_node2"><a xlink:href="../intrometry_pjmsg_mcap/index.html" xlink:title="intrometry_pjmsg_mcap">
<ellipse fill="none" stroke="black" cx="139" cy="-181" rx="122.68" ry="18"/>
<text text-anchor="middle" x="139" y="-177.3" font-family="Times,serif" font-size="14.00">intrometry_pjmsg_mcap</text>
</a>
</g>
</g>
<!-- intrometry_pjmsg_mcap&#45;&gt;intrometry_frontend -->
<g id="edge1" class="edge">
<title>intrometry_pjmsg_mcap&#45;&gt;intrometry_frontend</title>
<path fill="none" stroke="#0000ff" d="M140.14,-162.58C141.18,-154.12 142.46,-143.75 143.63,-134.25"/>
<path fill="none" stroke="#ff0000" d="M142.13,-162.82C143.17,-154.37 144.45,-143.99 145.62,-134.5"/>
<polygon fill="#0000ff" stroke="#0000ff" points="148.13,-134.53 145.88,-124.18 141.19,-133.67 148.13,-134.53"/>
</g>
<!-- ariles2_namevalue2_ws -->
<g id="node4" class="node">
<title>ariles2_namevalue2_ws</title>
<g id="a_node4"><a xlink:href="../ariles2_namevalue2_ws/index.html" xlink:title="ariles2_namevalue2_ws">
<ellipse fill="none" stroke="black" cx="406" cy="-106" rx="120.48" ry="18"/>
<text text-anchor="middle" x="406" y="-102.3" font-family="Times,serif" font-size="14.00">ariles2_namevalue2_ws</text>
</a>
</g>
</g>
<!-- intrometry_pjmsg_mcap&#45;&gt;ariles2_namevalue2_ws -->
<g id="edge3" class="edge">
<title>intrometry_pjmsg_mcap&#45;&gt;ariles2_namevalue2_ws</title>
<path fill="none" stroke="#0000ff" d="M219.26,-166.38C237.31,-162.92 256.31,-158.78 273.74,-154.04 301.81,-146.39 332.47,-135.41 357.13,-125.89"/>
<path fill="none" stroke="#ff0000" d="M219.63,-168.35C237.74,-164.88 256.73,-160.74 274.26,-155.96 302.48,-148.28 333.14,-137.29 357.85,-127.76"/>
<polygon fill="#0000ff" stroke="#0000ff" points="358.94,-130.02 366.98,-123.12 356.4,-123.5 358.94,-130.02"/>
</g>
<!-- thread_supervisor -->
<g id="node5" class="node">
<title>thread_supervisor</title>
<g id="a_node5"><a xlink:href="../thread_supervisor/index.html" xlink:title="thread_supervisor">
<ellipse fill="none" stroke="black" cx="639" cy="-106" rx="94.78" ry="18"/>
<text text-anchor="middle" x="639" y="-102.3" font-family="Times,serif" font-size="14.00">thread_supervisor</text>
</a>
</g>
</g>
<!-- intrometry_pjmsg_mcap&#45;&gt;thread_supervisor -->
<g id="edge2" class="edge">
<title>intrometry_pjmsg_mcap&#45;&gt;thread_supervisor</title>
<path fill="none" stroke="#0000ff" d="M259.67,-176.46C357.52,-173.46 487.22,-167.12 537.75,-154.03 560.09,-148.27 583.65,-137.39 602.29,-127.48"/>
<path fill="none" stroke="#ff0000" d="M259.73,-178.46C357.61,-175.46 487.32,-169.12 538.25,-155.97 560.93,-150.09 584.48,-139.2 603.23,-129.25"/>
<polygon fill="#0000ff" stroke="#0000ff" points="604.68,-131.3 611.79,-123.44 601.33,-125.16 604.68,-131.3"/>
</g>
<!-- ariles2_namevalue2_ws&#45;&gt;ariles2_core_ws -->
<g id="edge5" class="edge">
<title>ariles2_namevalue2_ws&#45;&gt;ariles2_core_ws</title>
<path fill="none" stroke="#0000ff" d="M400.58,-87.95C398.58,-80.15 396.16,-70.76 393.93,-62.08"/>
<path fill="none" stroke="#ff0000" d="M402.52,-87.45C400.51,-79.65 398.1,-70.26 395.87,-61.58"/>
<polygon fill="#0000ff" stroke="#0000ff" points="398.28,-60.92 392.4,-52.1 391.5,-62.66 398.28,-60.92"/>
</g>
</g>
</svg>
