<?xml version="1.0" encoding="UTF-8" standalone="no"?>
<!DOCTYPE svg PUBLIC "-//W3C//DTD SVG 1.1//EN"
 "http://www.w3.org/Graphics/SVG/1.1/DTD/svg11.dtd">
<!-- Generated by graphviz version 2.43.0 (0)
 -->
<!-- Title: mcap::IReadable Pages: 1 -->
<svg width="532pt" height="140pt"
 viewBox="0.00 0.00 532.00 140.00" xmlns="http://www.w3.org/2000/svg" xmlns:xlink="http://www.w3.org/1999/xlink">
<g id="graph0" class="graph" transform="scale(1 1) rotate(0) translate(4 136)">
<title>mcap::IReadable</title>
<polygon fill="white" stroke="transparent" points="-4,4 -4,-136 528,-136 528,4 -4,4"/>
<!-- Node1 -->
<g id="node1" class="node">
<title>Node1</title>
<g id="a_node1"><a xlink:title="An abstract interface for reading MCAP data.">
<polygon fill="#bfbfbf" stroke="black" points="138.5,-112.5 138.5,-131.5 236.5,-131.5 236.5,-112.5 138.5,-112.5"/>
<text text-anchor="middle" x="187.5" y="-119.5" font-family="Helvetica,sans-Serif" font-size="10.00">mcap::IReadable</text>
</a>
</g>
</g>
<!-- Node2 -->
<g id="node2" class="node">
<title>Node2</title>
<g id="a_node2"><a xlink:href="classmcap_1_1FileReader.html" target="_top" xlink:title="IReadable implementation wrapping a FILE* pointer created by fopen() and a read buffer.">
<polygon fill="white" stroke="black" points="0,-56.5 0,-75.5 101,-75.5 101,-56.5 0,-56.5"/>
<text text-anchor="middle" x="50.5" y="-63.5" font-family="Helvetica,sans-Serif" font-size="10.00">mcap::FileReader</text>
</a>
</g>
</g>
<!-- Node1&#45;&gt;Node2 -->
<g id="edge1" class="edge">
<title>Node1&#45;&gt;Node2</title>
<path fill="none" stroke="midnightblue" d="M156.48,-108.77C130.74,-98.63 94.81,-84.47 72.11,-75.52"/>
<polygon fill="midnightblue" stroke="midnightblue" points="155.21,-112.03 165.79,-112.44 157.77,-105.52 155.21,-112.03"/>
</g>
<!-- Node3 -->
<g id="node3" class="node">
<title>Node3</title>
<g id="a_node3"><a xlink:href="classmcap_1_1FileStreamReader.html" target="_top" xlink:title="IReadable implementation wrapping a std::ifstream input file stream.">
<polygon fill="white" stroke="black" points="119.5,-56.5 119.5,-75.5 255.5,-75.5 255.5,-56.5 119.5,-56.5"/>
<text text-anchor="middle" x="187.5" y="-63.5" font-family="Helvetica,sans-Serif" font-size="10.00">mcap::FileStreamReader</text>
</a>
</g>
</g>
<!-- Node1&#45;&gt;Node3 -->
<g id="edge2" class="edge">
<title>Node1&#45;&gt;Node3</title>
<path fill="none" stroke="midnightblue" d="M187.5,-101.8C187.5,-92.91 187.5,-82.78 187.5,-75.75"/>
<polygon fill="midnightblue" stroke="midnightblue" points="184,-102.08 187.5,-112.08 191,-102.08 184,-102.08"/>
</g>
<!-- Node4 -->
<g id="node4" class="node">
<title>Node4</title>
<g id="a_node4"><a xlink:href="classmcap_1_1ICompressedReader.html" target="_top" xlink:title="An abstract interface for compressed readers.">
<polygon fill="white" stroke="black" points="273.5,-56.5 273.5,-75.5 421.5,-75.5 421.5,-56.5 273.5,-56.5"/>
<text text-anchor="middle" x="347.5" y="-63.5" font-family="Helvetica,sans-Serif" font-size="10.00">mcap::ICompressedReader</text>
</a>
</g>
</g>
<!-- Node1&#45;&gt;Node4 -->
<g id="edge3" class="edge">
<title>Node1&#45;&gt;Node4</title>
<path fill="none" stroke="midnightblue" d="M222.55,-109.17C252.67,-99 295.4,-84.59 322.27,-75.52"/>
<polygon fill="midnightblue" stroke="midnightblue" points="221.21,-105.93 212.85,-112.44 223.45,-112.56 221.21,-105.93"/>
</g>
<!-- Node5 -->
<g id="node5" class="node">
<title>Node5</title>
<g id="a_node5"><a xlink:href="classmcap_1_1BufferReader.html" target="_top" xlink:title="A &quot;null&quot; compressed reader that directly passes through uncompressed data. No internal buffers are al...">
<polygon fill="white" stroke="black" points="164.5,-0.5 164.5,-19.5 278.5,-19.5 278.5,-0.5 164.5,-0.5"/>
<text text-anchor="middle" x="221.5" y="-7.5" font-family="Helvetica,sans-Serif" font-size="10.00">mcap::BufferReader</text>
</a>
</g>
</g>
<!-- Node4&#45;&gt;Node5 -->
<g id="edge4" class="edge">
<title>Node4&#45;&gt;Node5</title>
<path fill="none" stroke="midnightblue" d="M318.34,-52.5C294.72,-42.38 262.07,-28.39 241.37,-19.52"/>
<polygon fill="midnightblue" stroke="midnightblue" points="316.96,-55.72 327.53,-56.44 319.72,-49.29 316.96,-55.72"/>
</g>
<!-- Node6 -->
<g id="node6" class="node">
<title>Node6</title>
<g id="a_node6"><a xlink:href="classmcap_1_1LZ4Reader.html" target="_top" xlink:title="ICompressedReader implementation that decompresses LZ4 (https://lz4.github.io/lz4/) data.">
<polygon fill="white" stroke="black" points="296.5,-0.5 296.5,-19.5 398.5,-19.5 398.5,-0.5 296.5,-0.5"/>
<text text-anchor="middle" x="347.5" y="-7.5" font-family="Helvetica,sans-Serif" font-size="10.00">mcap::LZ4Reader</text>
</a>
</g>
</g>
<!-- Node4&#45;&gt;Node6 -->
<g id="edge5" class="edge">
<title>Node4&#45;&gt;Node6</title>
<path fill="none" stroke="midnightblue" d="M347.5,-45.8C347.5,-36.91 347.5,-26.78 347.5,-19.75"/>
<polygon fill="midnightblue" stroke="midnightblue" points="344,-46.08 347.5,-56.08 351,-46.08 344,-46.08"/>
</g>
<!-- Node7 -->
<g id="node7" class="node">
<title>Node7</title>
<g id="a_node7"><a xlink:href="classmcap_1_1ZStdReader.html" target="_top" xlink:title="ICompressedReader implementation that decompresses Zstandard (https://facebook.github....">
<polygon fill="white" stroke="black" points="417,-0.5 417,-19.5 524,-19.5 524,-0.5 417,-0.5"/>
<text text-anchor="middle" x="470.5" y="-7.5" font-family="Helvetica,sans-Serif" font-size="10.00">mcap::ZStdReader</text>
</a>
</g>
</g>
<!-- Node4&#45;&gt;Node7 -->
<g id="edge6" class="edge">
<title>Node4&#45;&gt;Node7</title>
<path fill="none" stroke="midnightblue" d="M376.27,-52.37C399.31,-42.26 430.98,-28.35 451.1,-19.52"/>
<polygon fill="midnightblue" stroke="midnightblue" points="374.74,-49.22 366.99,-56.44 377.55,-55.63 374.74,-49.22"/>
</g>
</g>
</svg>
