<?xml version="1.0" encoding="UTF-8" standalone="no"?>
<!DOCTYPE svg PUBLIC "-//W3C//DTD SVG 1.1//EN"
 "http://www.w3.org/Graphics/SVG/1.1/DTD/svg11.dtd">
<!-- Generated by graphviz version 2.43.0 (0)
 -->
<!-- Title: graphname Pages: 1 -->
<svg width="547pt" height="227pt"
 viewBox="0.00 0.00 547.37 227.00" xmlns="http://www.w3.org/2000/svg" xmlns:xlink="http://www.w3.org/1999/xlink">
<g id="graph0" class="graph" transform="scale(1 1) rotate(0) translate(4 223)">
<title>graphname</title>
<polygon fill="white" stroke="transparent" points="-4,4 -4,-223 543.37,-223 543.37,4 -4,4"/>
<g id="clust1" class="cluster">
<title>cluster_0</title>
<polygon fill="none" stroke="black" points="8,-64 8,-211 530,-211 530,-64 8,-64"/>
<text text-anchor="middle" x="269" y="-195.8" font-family="Times,serif" font-size="14.00">intrometry</text>
</g>
<!-- intrometry_tests -->
<g id="node1" class="node">
<title>intrometry_tests</title>
<g id="a_node1"><a xlink:href="../intrometry_tests/index.html" xlink:title="intrometry_tests">
<ellipse fill="none" stroke="black" cx="401" cy="-162" rx="88.28" ry="18"/>
<text text-anchor="middle" x="401" y="-158.3" font-family="Times,serif" font-size="14.00">intrometry_tests</text>
</a>
</g>
</g>
<!-- intrometry_pjmsg_mcap -->
<g id="node2" class="node">
<title>intrometry_pjmsg_mcap</title>
<g id="a_node2"><a xlink:href="../intrometry_pjmsg_mcap/index.html" xlink:title="intrometry_pjmsg_mcap">
<ellipse fill="none" stroke="black" cx="139" cy="-90" rx="122.68" ry="18"/>
<text text-anchor="middle" x="139" y="-86.3" font-family="Times,serif" font-size="14.00">intrometry_pjmsg_mcap</text>
</a>
</g>
</g>
<!-- intrometry_tests&#45;&gt;intrometry_pjmsg_mcap -->
<g id="edge2" class="edge">
<title>intrometry_tests&#45;&gt;intrometry_pjmsg_mcap</title>
<path fill="none" stroke="#0000ff" d="M349.29,-148.22C308,-137.19 249.75,-121.62 204.98,-109.66"/>
<path fill="none" stroke="#ff0000" d="M349.81,-146.29C308.52,-135.26 250.27,-119.69 205.5,-107.73"/>
<polygon fill="#0000ff" stroke="#0000ff" points="205.89,-105.25 195.32,-106.05 204.08,-112.01 205.89,-105.25"/>
</g>
<!-- intrometry_pjmsg_topic -->
<g id="node3" class="node">
<title>intrometry_pjmsg_topic</title>
<g id="a_node3"><a xlink:href="../intrometry_pjmsg_topic/index.html" xlink:title="intrometry_pjmsg_topic">
<ellipse fill="none" stroke="black" cx="401" cy="-90" rx="120.78" ry="18"/>
<text text-anchor="middle" x="401" y="-86.3" font-family="Times,serif" font-size="14.00">intrometry_pjmsg_topic</text>
</a>
</g>
</g>
<!-- intrometry_tests&#45;&gt;intrometry_pjmsg_topic -->
<g id="edge1" class="edge">
<title>intrometry_tests&#45;&gt;intrometry_pjmsg_topic</title>
<path fill="none" stroke="#0000ff" d="M400,-143.7C400,-135.98 400,-126.71 400,-118.11"/>
<path fill="none" stroke="#ff0000" d="M402,-143.7C402,-135.98 402,-126.71 402,-118.11"/>
<polygon fill="#0000ff" stroke="#0000ff" points="404.5,-118.1 401,-108.1 397.5,-118.1 404.5,-118.1"/>
</g>
<!-- thread_supervisor -->
<g id="node4" class="node">
<title>thread_supervisor</title>
<g id="a_node4"><a xlink:href="../thread_supervisor/index.html" xlink:title="thread_supervisor">
<ellipse fill="none" stroke="black" cx="401" cy="-18" rx="94.78" ry="18"/>
<text text-anchor="middle" x="401" y="-14.3" font-family="Times,serif" font-size="14.00">thread_supervisor</text>
</a>
</g>
</g>
<!-- intrometry_tests&#45;&gt;thread_supervisor -->
<g id="edge3" class="edge">
<title>intrometry_tests&#45;&gt;thread_supervisor</title>
<path fill="none" stroke="#0000ff" d="M466.77,-149.08C490.9,-141.56 516,-128.75 530.17,-107.44 540.91,-91.73 541.34,-79.89 530.19,-64.58 519.77,-49.83 503.71,-39.77 486.65,-33.14"/>
<path fill="none" stroke="#ff0000" d="M467.36,-150.99C491.81,-143.34 516.91,-130.53 531.83,-108.56 542.91,-91.81 543.34,-79.97 531.81,-63.42 520.84,-48.13 504.77,-38.08 487.37,-31.28"/>
<polygon fill="#0000ff" stroke="#0000ff" points="487.94,-28.83 477.35,-28.81 485.62,-35.43 487.94,-28.83"/>
</g>
<!-- intrometry_pjmsg_mcap&#45;&gt;thread_supervisor -->
<g id="edge5" class="edge">
<title>intrometry_pjmsg_mcap&#45;&gt;thread_supervisor</title>
<path fill="none" stroke="#0000ff" d="M194.95,-73.02C237.07,-61.76 294.72,-46.36 338.29,-34.72"/>
<path fill="none" stroke="#ff0000" d="M195.46,-74.95C237.59,-63.69 295.24,-48.29 338.8,-36.65"/>
<polygon fill="#0000ff" stroke="#0000ff" points="339.7,-39 348.46,-33.04 337.89,-32.24 339.7,-39"/>
</g>
<!-- intrometry_pjmsg_topic&#45;&gt;thread_supervisor -->
<g id="edge4" class="edge">
<title>intrometry_pjmsg_topic&#45;&gt;thread_supervisor</title>
<path fill="none" stroke="#0000ff" d="M400,-71.7C400,-63.98 400,-54.71 400,-46.11"/>
<path fill="none" stroke="#ff0000" d="M402,-71.7C402,-63.98 402,-54.71 402,-46.11"/>
<polygon fill="#0000ff" stroke="#0000ff" points="404.5,-46.1 401,-36.1 397.5,-46.1 404.5,-46.1"/>
</g>
</g>
</svg>
