<?xml version="1.0" encoding="UTF-8" standalone="no"?>
<!DOCTYPE svg PUBLIC "-//W3C//DTD SVG 1.1//EN"
 "http://www.w3.org/Graphics/SVG/1.1/DTD/svg11.dtd">
<!-- Generated by graphviz version 2.43.0 (0)
 -->
<!-- Title: graphname Pages: 1 -->
<svg width="514pt" height="188pt"
 viewBox="0.00 0.00 513.73 188.00" xmlns="http://www.w3.org/2000/svg" xmlns:xlink="http://www.w3.org/1999/xlink">
<g id="graph0" class="graph" transform="scale(1 1) rotate(0) translate(4 184)">
<title>graphname</title>
<polygon fill="white" stroke="transparent" points="-4,4 -4,-184 509.73,-184 509.73,4 -4,4"/>
<!-- intrometry_pjmsg_mcap -->
<g id="node1" class="node">
<title>intrometry_pjmsg_mcap</title>
<g id="a_node1"><a xlink:href="../intrometry_pjmsg_mcap/index.html" xlink:title="intrometry_pjmsg_mcap">
<ellipse fill="none" stroke="black" cx="122.84" cy="-90" rx="122.68" ry="18"/>
<text text-anchor="middle" x="122.84" y="-86.3" font-family="Times,serif" font-size="14.00">intrometry_pjmsg_mcap</text>
</a>
</g>
</g>
<!-- intrometry_frontend -->
<g id="node4" class="node">
<title>intrometry_frontend</title>
<g id="a_node4"><a xlink:href="../intrometry_frontend/index.html" xlink:title="intrometry_frontend">
<ellipse fill="none" stroke="black" cx="253.84" cy="-18" rx="105.08" ry="18"/>
<text text-anchor="middle" x="253.84" y="-14.3" font-family="Times,serif" font-size="14.00">intrometry_frontend</text>
</a>
</g>
</g>
<!-- intrometry_pjmsg_mcap&#45;&gt;intrometry_frontend -->
<g id="edge4" class="edge">
<title>intrometry_pjmsg_mcap&#45;&gt;intrometry_frontend</title>
<path fill="none" stroke="#0000ff" d="M153.41,-71.53C171.44,-61.9 194.34,-49.66 213.66,-39.33"/>
<path fill="none" stroke="#ff0000" d="M154.36,-73.29C172.38,-63.66 195.28,-51.43 214.61,-41.1"/>
<polygon fill="#0000ff" stroke="#0000ff" points="215.85,-43.27 223.02,-35.47 212.55,-37.1 215.85,-43.27"/>
</g>
<!-- intrometry_pjmsg_topic -->
<g id="node2" class="node">
<title>intrometry_pjmsg_topic</title>
<g id="a_node2"><a xlink:href="../intrometry_pjmsg_topic/index.html" xlink:title="intrometry_pjmsg_topic">
<ellipse fill="none" stroke="black" cx="384.84" cy="-90" rx="120.78" ry="18"/>
<text text-anchor="middle" x="384.84" y="-86.3" font-family="Times,serif" font-size="14.00">intrometry_pjmsg_topic</text>
</a>
</g>
</g>
<!-- intrometry_pjmsg_topic&#45;&gt;intrometry_frontend -->
<g id="edge3" class="edge">
<title>intrometry_pjmsg_topic&#45;&gt;intrometry_frontend</title>
<path fill="none" stroke="#0000ff" d="M353.65,-73.47C335.5,-63.77 312.34,-51.39 292.84,-40.97"/>
<path fill="none" stroke="#ff0000" d="M354.6,-71.71C336.45,-62.01 313.28,-49.63 293.78,-39.21"/>
<polygon fill="#0000ff" stroke="#0000ff" points="294.83,-36.94 284.36,-35.31 291.53,-43.11 294.83,-36.94"/>
</g>
<!-- intrometry_tests -->
<g id="node3" class="node">
<title>intrometry_tests</title>
<g id="a_node3"><a xlink:href="../intrometry_tests/index.html" xlink:title="intrometry_tests">
<ellipse fill="none" stroke="black" cx="253.84" cy="-162" rx="88.28" ry="18"/>
<text text-anchor="middle" x="253.84" y="-158.3" font-family="Times,serif" font-size="14.00">intrometry_tests</text>
</a>
</g>
</g>
<!-- intrometry_tests&#45;&gt;intrometry_pjmsg_mcap -->
<g id="edge1" class="edge">
<title>intrometry_tests&#45;&gt;intrometry_pjmsg_mcap</title>
<path fill="none" stroke="#0000ff" d="M223.31,-145.82C205.19,-136.14 181.87,-123.68 162.22,-113.18"/>
<path fill="none" stroke="#ff0000" d="M224.26,-144.06C206.13,-134.37 182.82,-121.91 163.16,-111.41"/>
<polygon fill="#0000ff" stroke="#0000ff" points="164.13,-109.1 153.66,-107.47 160.83,-115.27 164.13,-109.1"/>
</g>
<!-- intrometry_tests&#45;&gt;intrometry_pjmsg_topic -->
<g id="edge2" class="edge">
<title>intrometry_tests&#45;&gt;intrometry_pjmsg_topic</title>
<path fill="none" stroke="#0000ff" d="M283.42,-144.06C301.55,-134.37 324.86,-121.91 344.52,-111.41"/>
<path fill="none" stroke="#ff0000" d="M284.36,-145.82C302.49,-136.14 325.81,-123.68 345.46,-113.18"/>
<polygon fill="#0000ff" stroke="#0000ff" points="346.85,-115.27 354.02,-107.47 343.55,-109.1 346.85,-115.27"/>
</g>
</g>
</svg>
