<?xml version="1.0" encoding="UTF-8" standalone="no"?>
<!DOCTYPE svg PUBLIC "-//W3C//DTD SVG 1.1//EN"
 "http://www.w3.org/Graphics/SVG/1.1/DTD/svg11.dtd">
<!-- Generated by graphviz version 2.43.0 (0)
 -->
<!-- Title: graphname Pages: 1 -->
<svg width="250pt" height="182pt"
 viewBox="0.00 0.00 250.00 182.00" xmlns="http://www.w3.org/2000/svg" xmlns:xlink="http://www.w3.org/1999/xlink">
<g id="graph0" class="graph" transform="scale(1 1) rotate(0) translate(4 178)">
<title>graphname</title>
<polygon fill="white" stroke="transparent" points="-4,4 -4,-178 246,-178 246,4 -4,4"/>
<g id="clust1" class="cluster">
<title>cluster_0</title>
<polygon fill="none" stroke="black" points="8,-91 8,-166 234,-166 234,-91 8,-91"/>
<text text-anchor="middle" x="121" y="-150.8" font-family="Times,serif" font-size="14.00">intrometry</text>
</g>
<g id="clust2" class="cluster">
<title>cluster_1</title>
<polygon fill="none" stroke="black" points="29,-8 29,-83 213,-83 213,-8 29,-8"/>
<text text-anchor="middle" x="121" y="-67.8" font-family="Times,serif" font-size="14.00">ariles</text>
</g>
<!-- intrometry_frontend -->
<g id="node1" class="node">
<title>intrometry_frontend</title>
<g id="a_node1"><a xlink:href="../intrometry_frontend/index.html" xlink:title="intrometry_frontend">
<ellipse fill="none" stroke="black" cx="121" cy="-117" rx="105.08" ry="18"/>
<text text-anchor="middle" x="121" y="-113.3" font-family="Times,serif" font-size="14.00">intrometry_frontend</text>
</a>
</g>
</g>
<!-- ariles2_core_ws -->
<g id="node2" class="node">
<title>ariles2_core_ws</title>
<g id="a_node2"><a xlink:href="../ariles2_core_ws/index.html" xlink:title="ariles2_core_ws">
<ellipse fill="none" stroke="black" cx="121" cy="-34" rx="83.69" ry="18"/>
<text text-anchor="middle" x="121" y="-30.3" font-family="Times,serif" font-size="14.00">ariles2_core_ws</text>
</a>
</g>
</g>
<!-- intrometry_frontend&#45;&gt;ariles2_core_ws -->
<g id="edge1" class="edge">
<title>intrometry_frontend&#45;&gt;ariles2_core_ws</title>
<path fill="none" stroke="#0000ff" d="M120,-98.82C120,-88.19 120,-74.31 120,-62.2"/>
<path fill="none" stroke="#ff0000" d="M122,-98.82C122,-88.19 122,-74.31 122,-62.2"/>
<polygon fill="#0000ff" stroke="#0000ff" points="124.5,-62.15 121,-52.15 117.5,-62.15 124.5,-62.15"/>
</g>
</g>
</svg>
